<?xml version="1.0" encoding="UTF-8"?>
<svg version="1.1" xmlns="http://www.w3.org/2000/svg" width="256" height="256">
<path d="M0 0 C84.48 0 168.96 0 256 0 C256 84.48 256 168.96 256 256 C171.52 256 87.04 256 0 256 C0 171.52 0 87.04 0 0 Z " fill="#060D33" transform="translate(0,0)"/>
<path d="M0 0 C12.16538218 4.16097571 20.5480803 13.92825758 28.47298431 23.58029938 C31.02201648 26.6230986 33.72150242 29.52682733 36.40816498 32.44779205 C41.59890662 38.13302142 46.61391435 43.94119122 51.53121185 49.8657608 C46.8698964 60.28005303 36.54088324 69.32775341 28.78121185 77.6157608 C28.26513744 78.1684325 27.74906303 78.7211042 27.21735001 79.29052353 C15.2538862 92.00583001 4.33013115 103.15541702 -14.05042267 104.14490509 C-23.97048923 104.19731342 -33.78383258 102.94339154 -43.46878815 100.8657608 C-41.95071534 97.2909709 -39.85304104 95.00764357 -37.11087799 92.28079987 C-36.21009521 91.38016815 -35.30931244 90.47953644 -34.38123322 89.55161285 C-33.39750407 88.578096 -32.41366565 87.60468955 -31.42972565 86.6313858 C-30.42323687 85.62862919 -29.41719025 84.62542859 -28.41156769 83.62180328 C-25.76916667 80.98702267 -23.12081386 78.35830469 -20.47116852 75.73081207 C-17.76622762 73.04636392 -15.06696994 70.35621458 -12.36722565 67.66654205 C-7.07328641 62.39402462 -1.77304532 57.12790023 3.53121185 51.8657608 C1.75534525 48.05326201 -0.47244003 45.63226584 -3.47660065 42.6626358 C-3.96208374 42.1799826 -4.44756683 41.69732941 -4.94776154 41.20005035 C-6.49178681 39.66717519 -8.04263639 38.14142077 -9.59378815 36.6157608 C-10.64502823 35.57455719 -11.69581472 34.53289539 -12.7461319 33.4907608 C-15.31511818 30.94376616 -17.89026976 28.40310904 -20.46878815 25.8657608 C-25.34136632 29.83867922 -29.60808058 34.04841654 -33.72806549 38.78910065 C-34.94347241 40.16441821 -36.16030608 41.53847587 -37.37836456 42.91144562 C-38.01610432 43.63085453 -38.65384407 44.35026344 -39.31090927 45.09147263 C-92.01376009 104.17553215 -92.01376009 104.17553215 -115.33475494 107.07132721 C-133.94936888 107.77837864 -146.61381429 99.38754499 -159.85874557 87.35542297 C-171.66561431 76.3998267 -182.27272459 64.31430852 -192.46878815 51.8657608 C-187.83486143 41.56871837 -177.95332939 32.83639151 -170.28128815 24.6157608 C-169.77794701 24.07496635 -169.27460587 23.53417191 -168.75601196 22.97698975 C-156.80940143 10.24306626 -146.03169098 -0.3939139 -127.66814423 -1.34334564 C-117.49582517 -1.39509049 -107.42268639 -0.16135783 -97.46878815 1.8657608 C-102.34603251 7.7455113 -107.60765693 13.13456897 -113.02347565 18.51810455 C-113.9250238 19.41823776 -114.82657196 20.31837097 -115.75543976 21.24578094 C-118.13077032 23.61648903 -120.5082422 25.98500596 -122.88681793 28.35245514 C-125.32223532 30.77756809 -127.75475727 33.20558165 -130.18753815 35.63333893 C-134.94531583 40.38013208 -139.70594194 45.12405362 -144.46878815 49.8657608 C-142.69292154 53.6782596 -140.46513627 56.09925577 -137.46097565 59.0688858 C-136.97549255 59.551539 -136.49000946 60.0341922 -135.98981476 60.53147125 C-134.44578949 62.06434642 -132.89493991 63.59010084 -131.34378815 65.1157608 C-130.29254806 66.15696441 -129.24176158 67.19862621 -128.1914444 68.2407608 C-125.62245811 70.78775545 -123.04730653 73.32841257 -120.46878815 75.8657608 C-115.56103937 71.86298672 -111.25461823 67.61025767 -107.08597565 62.85062408 C-100.93930542 55.93013212 -94.67860615 49.12820971 -88.33959198 42.38352394 C-84.52756681 38.31708374 -80.7698618 34.22036225 -77.10990143 30.01615143 C-55.50603123 5.29984316 -33.96626004 -9.30340588 0 0 Z " fill="#D532FA" transform="translate(198.46878814697266,77.13423919677734)"/>
<path d="M0 0 C-4.87724437 5.8797505 -10.13886878 11.26880817 -15.5546875 16.65234375 C-16.45623566 17.55247696 -17.35778381 18.45261017 -18.28665161 19.38002014 C-20.66198217 21.75072823 -23.03945405 24.11924515 -25.41802979 26.48669434 C-27.85344717 28.91180728 -30.28596912 31.33982085 -32.71875 33.76757812 C-37.47652769 38.51437128 -42.2371538 43.25829281 -47 48 C-45.49770021 51.50479621 -43.47563872 53.78289208 -40.79736328 56.47729492 C-39.92951202 57.35467819 -39.06166077 58.23206146 -38.16751099 59.1360321 C-37.21877433 60.08450737 -36.26969993 61.03264489 -35.3203125 61.98046875 C-34.34604229 62.95862765 -33.37199568 63.9370093 -32.39816284 64.91560364 C-30.35884211 66.96237551 -28.3157026 69.00524217 -26.27001953 71.0456543 C-23.64984035 73.66003076 -21.0412209 76.28561404 -18.43556404 78.91445446 C-16.42819658 80.93655397 -14.41394462 82.9516838 -12.39764023 84.96486855 C-11.43284795 85.93017398 -10.4704151 86.89784362 -9.51041031 87.86791039 C-8.16793352 89.22272705 -6.81490009 90.56705854 -5.46142578 91.91088867 C-4.69468536 92.67825851 -3.92794495 93.44562836 -3.13796997 94.23625183 C-1.00367064 95.99697186 0.29497704 96.61584636 3 97 C-2.19613148 102.19613148 -19.20950669 101.14200731 -26.14819336 101.42382812 C-44.74061185 101.31519951 -55.09298123 93.44181342 -67.61108398 80.82983398 C-69.78924206 78.57841885 -71.9329765 76.29740836 -74.0625 74 C-74.59459705 73.4260915 -75.12669411 72.852183 -75.67491531 72.26088333 C-82.34284968 65.02775391 -88.76615974 57.61100178 -95 50 C-90.36607328 39.70295756 -80.48454124 30.9706307 -72.8125 22.75 C-72.30915886 22.20920555 -71.80581772 21.6684111 -71.28722382 21.11122894 C-49.98230555 -1.59773929 -30.84210045 -6.28101623 0 0 Z " fill="#0087FA" transform="translate(101,79)"/>
<path d="M0 0 C-4.66540313 5.59578926 -9.63024948 10.79003028 -14.77172852 15.94873047 C-16.06309723 17.24995598 -16.06309723 17.24995598 -17.3805542 18.57746887 C-20.21043283 21.42694899 -23.04421392 24.27249868 -25.87890625 27.1171875 C-26.85889255 28.10122683 -27.83884676 29.08529812 -28.81876945 30.06940079 C-33.41712408 34.68674634 -38.01784348 39.30171933 -42.62151772 43.91376102 C-47.92580007 49.22784688 -53.22166796 54.55014049 -58.51067978 59.87942398 C-62.6099819 64.00886152 -66.71690729 68.1306163 -70.82964653 72.24667084 C-73.28214803 74.70152211 -75.73123605 77.15956439 -78.17230415 79.62578964 C-80.88975934 82.37080568 -83.62290904 85.09985191 -86.35766602 87.82763672 C-87.1624791 88.64525986 -87.96729218 89.462883 -88.79649353 90.30528259 C-89.5435556 91.04540085 -90.29061768 91.7855191 -91.06031799 92.54806519 C-91.70423272 93.19436827 -92.34814745 93.84067135 -93.01157475 94.50655937 C-95.38410072 96.28848538 -97.05065905 96.79087195 -100 97 C-102.49536133 95.18579102 -102.49536133 95.18579102 -105.08203125 92.50390625 C-105.54107346 92.03637436 -106.00011566 91.56884247 -106.47306824 91.08714294 C-107.93423114 89.59242519 -109.37315999 88.07821414 -110.8125 86.5625 C-111.80003597 85.54486707 -112.78895369 84.52857308 -113.77929688 83.51367188 C-116.20241626 81.02444409 -118.60601908 78.51730051 -121 76 C-119.72313998 73.24522823 -118.35600884 71.05391729 -116.34236145 68.7855835 C-115.80171555 68.17426575 -115.26106964 67.562948 -114.70404053 66.93310547 C-114.11181702 66.2742334 -113.51959351 65.61536133 -112.90942383 64.93652344 C-112.28237045 64.23368225 -111.65531708 63.53084106 -111.00926208 62.80670166 C-105.14793901 56.27517456 -99.15029892 49.87263119 -93.10800648 43.50857162 C-89.06584947 39.24559392 -85.07914511 34.95207131 -81.19750977 30.54199219 C-56.27537741 2.31694418 -37.60956671 -5.76897148 0 0 Z " fill="#AD47F5" transform="translate(200,79)"/>
<path d="M0 0 C6.3366216 5.21478541 12.055816 10.97280116 17.8125 16.8125 C19.69114744 18.71773656 21.57305969 20.61953725 23.45703125 22.51953125 C24.28178955 23.35589111 25.10654785 24.19225098 25.95629883 25.05395508 C27.84921038 27.0466549 27.84921038 27.0466549 30 28 C24.90388334 39.14484075 14.36445463 51.91543962 3 57 C-11.63640047 60.74722317 -28.15325044 58.53952958 -43 57 C-41.4819272 53.4252101 -39.38425289 51.14188276 -36.64208984 48.41503906 C-35.74130707 47.51440735 -34.84052429 46.61377563 -33.91244507 45.68585205 C-32.92871592 44.71233519 -31.9448775 43.73892875 -30.9609375 42.765625 C-29.95444872 41.76286839 -28.94840211 40.75966778 -27.94277954 39.75604248 C-25.30037853 37.12126187 -22.65202572 34.49254389 -20.00238037 31.86505127 C-17.29743948 29.18060312 -14.59818179 26.49045378 -11.8984375 23.80078125 C-6.60449826 18.52826382 -1.30425717 13.26213943 4 8 C3.69320312 7.38640625 3.38640625 6.7728125 3.0703125 6.140625 C2.046875 4.09375 1.0234375 2.046875 0 0 Z " fill="#FD2DF7" transform="translate(198,121)"/>
<path d="M0 0 C15.18 0 30.36 0 46 0 C39.24027361 7.88634745 39.24027361 7.88634745 35.71044922 11.48242188 C34.52925003 12.68771545 34.52925003 12.68771545 33.32418823 13.9173584 C29.77955295 17.50686031 26.23278188 21.09414248 22.67724609 24.67285156 C20.79990281 26.56687798 18.92729045 28.4643347 17.06201172 30.37011719 C14.3631471 33.12340394 11.64851406 35.86019127 8.9296875 38.59375 C7.67646194 39.88097961 7.67646194 39.88097961 6.3979187 41.19421387 C5.22617599 42.36168152 5.22617599 42.36168152 4.03076172 43.55273438 C3.00533768 44.5902887 3.00533768 44.5902887 1.959198 45.64880371 C0 47 0 47 -2.11453247 46.83155823 C-4.82711154 45.6352144 -6.4763457 43.85859324 -8.546875 41.74609375 C-9.39121094 40.89208984 -10.23554687 40.03808594 -11.10546875 39.15820312 C-11.97816406 38.26037109 -12.85085937 37.36253906 -13.75 36.4375 C-14.63816406 35.53580078 -15.52632812 34.63410156 -16.44140625 33.70507812 C-18.63448315 31.47662902 -20.82026044 29.24148407 -23 27 C-21.44249977 23.23703602 -19.1107914 20.9083903 -16.2109375 18.0859375 C-15.26992188 17.16039063 -14.32890625 16.23484375 -13.359375 15.28125 C-12.36515253 14.31191584 -11.37035377 13.34317245 -10.375 12.375 C-8.41873271 10.47177547 -6.46937986 8.56230388 -4.5234375 6.6484375 C-3.65638184 5.80458496 -2.78932617 4.96073242 -1.89599609 4.09130859 C0.22388828 2.22352006 0.22388828 2.22352006 0 0 Z " fill="#008FFB" transform="translate(55,79)"/>
<path d="M0 0 C3.36197597 1.57264988 5.37666988 3.37666988 8 6 C8.73404053 6.40589355 9.46808105 6.81178711 10.22436523 7.22998047 C13.81478893 9.51959009 16.52389687 12.33269638 19.47265625 15.3828125 C20.71407854 16.64464358 21.95561852 17.90635889 23.19726562 19.16796875 C25.13738407 21.15168259 27.07496053 23.13780574 29.01000977 25.12646484 C30.88698343 27.05165129 32.7730212 28.96759344 34.66015625 30.8828125 C35.23629166 31.48070587 35.81242706 32.07859924 36.40602112 32.6946106 C39.19546391 35.51830739 41.08686404 37.27760424 45 38 C43.40468395 39.59531605 41.71139011 39.17528064 39.49951172 39.22460938 C38.54116425 39.24712769 37.58281677 39.269646 36.59542847 39.29284668 C32.18837047 39.36370967 27.7814882 39.42141893 23.37402344 39.45996094 C21.05187313 39.48653313 18.72984006 39.52741932 16.40820312 39.58300781 C13.06071231 39.66225531 9.71547976 39.69529436 6.3671875 39.71875 C5.33463837 39.75174194 4.30208923 39.78473389 3.23825073 39.81872559 C-2.10434218 39.80397054 -5.20248099 39.4448329 -9.10888672 35.61914062 C-11.43039391 32.92636046 -13.21912824 30.07605123 -15 27 C-16.62836738 25.2958946 -18.28769752 23.61974559 -20 22 C-18.51346494 18.53370165 -16.54277649 16.30977964 -13.8671875 13.671875 C-12.65869141 12.47304687 -12.65869141 12.47304687 -11.42578125 11.25 C-10.58402344 10.425 -9.74226563 9.6 -8.875 8.75 C-8.02550781 7.90953125 -7.17601562 7.0690625 -6.30078125 6.203125 C-4.20495077 4.13084317 -2.10459287 2.06337607 0 0 Z " fill="#4851E2" transform="translate(59,138)"/>
<path d="M0 0 C0.66 0.66 1.32 1.32 2 2 C-5.59 9.59 -13.18 17.18 -21 25 C-19.20727364 28.58545272 -17.92798823 30.3094578 -15.15625 33.0390625 C-14.02896484 34.15667969 -14.02896484 34.15667969 -12.87890625 35.296875 C-12.09386719 36.06515625 -11.30882812 36.8334375 -10.5 37.625 C-9.71496094 38.40101562 -8.92992188 39.17703125 -8.12109375 39.9765625 C-6.66826454 41.41194779 -5.21339433 42.84527222 -3.75585938 44.27587891 C-0.03364561 47.93081128 -0.03364561 47.93081128 0.93505859 49.92285156 C2.06663837 52.12997691 3.27400763 53.50392905 5.0390625 55.234375 C5.90917969 56.09482422 5.90917969 56.09482422 6.796875 56.97265625 C7.40015625 57.55917969 8.0034375 58.14570313 8.625 58.75 C9.23601563 59.35199219 9.84703125 59.95398438 10.4765625 60.57421875 C11.97988624 62.05405305 13.48934856 63.52764676 15 65 C12 65 12 65 9.3125 62.5 C8.549375 61.675 7.78625 60.85 7 60 C3.63664406 61.45745424 1.45465995 63.31117854 -1.109375 65.9140625 C-1.86347656 66.67460937 -2.61757813 67.43515625 -3.39453125 68.21875 C-4.17183594 69.0128125 -4.94914062 69.806875 -5.75 70.625 C-6.54277344 71.42679687 -7.33554687 72.22859375 -8.15234375 73.0546875 C-10.10614493 75.03202846 -12.05512103 77.01388909 -14 79 C-12.27845212 82.76488042 -10.00765886 85.15063897 -7 88 C-7.33 88.66 -7.66 89.32 -8 90 C-11.2075998 86.93700693 -14.38730537 83.84654508 -17.5625 80.75 C-18.47708984 79.87730469 -19.39167969 79.00460938 -20.33398438 78.10546875 C-21.19443359 77.26113281 -22.05488281 76.41679687 -22.94140625 75.546875 C-23.74263916 74.77182617 -24.54387207 73.99677734 -25.36938477 73.19824219 C-27 71 -27 71 -26.84350586 68.82519531 C-25.86021579 66.69753205 -24.82763223 65.46210578 -23 64 C-22.34 64 -21.68 64 -21 64 C-20.34 62.68 -19.68 61.36 -19 60 C-18.34 60 -17.68 60 -17 60 C-16.731875 59.360625 -16.46375 58.72125 -16.1875 58.0625 C-15 56 -15 56 -12 55 C-11.31513275 53.67592331 -10.65129797 52.34090759 -10 51 C-8.70529025 49.62913085 -7.37849103 48.28659163 -6 47 C-7.94219077 43.53874798 -9.96666141 40.79280517 -12.79296875 38.01171875 C-13.50517578 37.30595703 -14.21738281 36.60019531 -14.95117188 35.87304688 C-15.68916016 35.15181641 -16.42714844 34.43058594 -17.1875 33.6875 C-17.93708984 32.94693359 -18.68667969 32.20636719 -19.45898438 31.44335938 C-21.30153282 29.62428288 -23.14859662 27.81005611 -25 26 C-20.03805145 20.00499003 -14.6523376 14.53572963 -9.125 9.0625 C-8.24585937 8.18787109 -7.36671875 7.31324219 -6.4609375 6.41210938 C-4.3095654 4.27242952 -2.15588208 2.13513403 0 0 Z " fill="#2F69EC" transform="translate(54,79)"/>
<path d="M0 0 C0.66 0.66 1.32 1.32 2 2 C-5.59 9.59 -13.18 17.18 -21 25 C-19.20727364 28.58545272 -17.92798823 30.3094578 -15.15625 33.0390625 C-14.02896484 34.15667969 -14.02896484 34.15667969 -12.87890625 35.296875 C-12.09386719 36.06515625 -11.30882812 36.8334375 -10.5 37.625 C-9.71496094 38.40101562 -8.92992188 39.17703125 -8.12109375 39.9765625 C-6.66826454 41.41194779 -5.21339433 42.84527222 -3.75585938 44.27587891 C-1.07192217 46.91130223 0.25788784 48.28943921 1 52 C0.4323291 52.07871338 -0.1353418 52.15742676 -0.72021484 52.23852539 C-3.76400935 53.25518796 -5.23542338 54.89626755 -7.4765625 57.18359375 C-8.311875 58.02857422 -9.1471875 58.87355469 -10.0078125 59.74414062 C-10.87148438 60.63294922 -11.73515625 61.52175781 -12.625 62.4375 C-13.49640625 63.32244141 -14.3678125 64.20738281 -15.265625 65.11914062 C-16.87791893 66.75764057 -18.48712282 68.39919067 -20.09228516 70.04467773 C-21.38656632 71.37125796 -22.6894698 72.6894698 -24 74 C-24.99 72.68 -25.98 71.36 -27 70 C-25.58226538 66.45566346 -24.32387762 65.66193881 -21 64 C-19.73195434 61.9664052 -19.73195434 61.9664052 -19 60 C-18.34 60 -17.68 60 -17 60 C-16.731875 59.360625 -16.46375 58.72125 -16.1875 58.0625 C-15 56 -15 56 -12 55 C-11.31513275 53.67592331 -10.65129797 52.34090759 -10 51 C-8.70529025 49.62913085 -7.37849103 48.28659163 -6 47 C-7.94219077 43.53874798 -9.96666141 40.79280517 -12.79296875 38.01171875 C-13.50517578 37.30595703 -14.21738281 36.60019531 -14.95117188 35.87304688 C-15.68916016 35.15181641 -16.42714844 34.43058594 -17.1875 33.6875 C-17.93708984 32.94693359 -18.68667969 32.20636719 -19.45898438 31.44335938 C-21.30153282 29.62428288 -23.14859662 27.81005611 -25 26 C-20.03805145 20.00499003 -14.6523376 14.53572963 -9.125 9.0625 C-8.24585937 8.18787109 -7.36671875 7.31324219 -6.4609375 6.41210938 C-4.3095654 4.27242952 -2.15588208 2.13513403 0 0 Z " fill="#1C74F1" transform="translate(54,79)"/>
<path d="M0 0 C2.74480785 0.63750814 5.42844432 1.36111342 8.13671875 2.14453125 C4.88661005 5.99334865 1.63021582 9.77803006 -1.94921875 13.328125 C-2.65175781 14.02744141 -3.35429687 14.72675781 -4.078125 15.44726562 C-4.79097656 16.15173828 -5.50382812 16.85621094 -6.23828125 17.58203125 C-6.97433594 18.31357422 -7.71039063 19.04511719 -8.46875 19.79882812 C-10.26464199 21.58305848 -12.0628411 23.36489249 -13.86328125 25.14453125 C-14.52328125 24.81453125 -15.18328125 24.48453125 -15.86328125 24.14453125 C-15.29295166 23.57943848 -14.72262207 23.0143457 -14.13500977 22.43212891 C-11.5626745 19.8805277 -8.99418788 17.32508667 -6.42578125 14.76953125 C-5.52794922 13.88007812 -4.63011719 12.990625 -3.70507812 12.07421875 C-2.85107422 11.2234375 -1.99707031 10.37265625 -1.1171875 9.49609375 C0.06895142 8.31781006 0.06895142 8.31781006 1.27905273 7.11572266 C3.19042893 5.27708823 3.19042893 5.27708823 4.13671875 3.14453125 C-20.91304369 -0.01267337 -20.91304369 -0.01267337 -43.88265419 8.32050514 C-53.00657193 15.52700687 -60.76431477 24.24797755 -68.41937256 32.95404053 C-71.80975742 36.76109423 -75.32313641 40.45119783 -78.82617188 44.15429688 C-85.62676109 51.37811622 -92.28698797 58.71635023 -98.86328125 66.14453125 C-99.35828125 64.65953125 -99.35828125 64.65953125 -99.86328125 63.14453125 C-90.90241426 52.76630717 -81.71769621 42.61117433 -72.30078125 32.64453125 C-71.27436209 31.55776281 -71.27436209 31.55776281 -70.22720718 30.44903946 C-48.78488589 7.89427198 -32.742143 -6.21585778 0 0 Z " fill="#B349F3" transform="translate(191.86328125,76.85546875)"/>
<path d="M0 0 C0.99 0.33 1.98 0.66 3 1 C-1.95 5.95 -6.9 10.9 -12 16 C8.295 16.495 8.295 16.495 29 17 C29 17.66 29 18.32 29 19 C13.82 19 -1.36 19 -17 19 C-15.27370154 15.54740307 -14.16774527 13.92761399 -11.5234375 11.328125 C-10.51796875 10.33232422 -10.51796875 10.33232422 -9.4921875 9.31640625 C-8.79351562 8.63449219 -8.09484375 7.95257813 -7.375 7.25 C-6.66859375 6.55261719 -5.9621875 5.85523438 -5.234375 5.13671875 C-3.49401297 3.41987512 -1.74915019 1.70788168 0 0 Z " fill="#D064D3" transform="translate(172,159)"/>
<path d="M0 0 C0.66 0 1.32 0 2 0 C0.38345407 4.05799596 -2.50693513 6.77900376 -5.55859375 9.7890625 C-6.37602806 10.60580948 -6.37602806 10.60580948 -7.2099762 11.4390564 C-8.36003043 12.58609682 -9.5125069 13.73071312 -10.66723633 14.87304688 C-12.43303789 16.62058404 -14.19069788 18.37599897 -15.94726562 20.1328125 C-17.06723751 21.24786893 -18.18766499 22.36246798 -19.30859375 23.4765625 C-19.83368027 24.00053619 -20.35876678 24.52450989 -20.89976501 25.06436157 C-24.82336765 28.93727539 -27.23110139 31.25588123 -32.83862305 31.22705078 C-34.30980843 31.22682419 -34.30980843 31.22682419 -35.81071472 31.22659302 C-36.86704605 31.21627045 -37.92337738 31.20594788 -39.01171875 31.1953125 C-40.09508011 31.1924826 -41.17844147 31.18965271 -42.29463196 31.18673706 C-45.75903308 31.17553091 -49.22317685 31.15042534 -52.6875 31.125 C-55.03450148 31.11497077 -57.381507 31.10584482 -59.72851562 31.09765625 C-65.48576507 31.07559016 -71.24286415 31.04210827 -77 31 C-77 30.67 -77 30.34 -77 30 C-75.69780518 30.12157471 -74.39561035 30.24314941 -73.05395508 30.3684082 C-46.06843774 33.32542151 -46.06843774 33.32542151 -21.60594177 24.35560608 C-14.20399077 17.97598936 -7.9298048 10.48487688 -2.12744141 2.64624023 C-1.42538574 1.77298096 -0.72333008 0.89972168 0 0 Z " fill="#162163" transform="translate(132,147)"/>
<path d="M0 0 C0.66 0.66 1.32 1.32 2 2 C-16.15 20.15 -34.3 38.3 -53 57 C-53.66 56.34 -54.32 55.68 -55 55 C-54.48050781 54.56429687 -53.96101563 54.12859375 -53.42578125 53.6796875 C-49.16500228 50.04109252 -45.5840012 46.31918094 -42 42 C-40.85139074 40.9793101 -39.6835652 39.97994108 -38.5 39 C-35.20128588 36.26535172 -32.69249702 33.33019369 -30 30 C-28.34474846 28.32199586 -26.67624497 26.657033 -25 25 C-24.01967929 24.01025631 -23.04054648 23.01933485 -22.0625 22.02734375 C-21.04169004 20.99737267 -20.02085647 19.96742499 -19 18.9375 C-18.23816406 18.1630957 -18.23816406 18.1630957 -17.4609375 17.37304688 C-14.45439742 14.3472341 -11.33628788 11.66562013 -8 9 C-6.50298455 7.35684845 -6.50298455 7.35684845 -5.3125 5.75 C-4.549375 4.8425 -3.78625 3.935 -3 3 C-2.34 3 -1.68 3 -1 3 C-0.67 2.01 -0.34 1.02 0 0 Z " fill="#021941" transform="translate(133,96)"/>
<path d="M0 0 C0.66 0.66 1.32 1.32 2 2 C-5.59 9.59 -13.18 17.18 -21 25 C-19.20727364 28.58545272 -17.92798823 30.3094578 -15.15625 33.0390625 C-14.02896484 34.15667969 -14.02896484 34.15667969 -12.87890625 35.296875 C-12.09386719 36.06515625 -11.30882812 36.8334375 -10.5 37.625 C-9.32244141 38.78902344 -9.32244141 38.78902344 -8.12109375 39.9765625 C-6.66826454 41.41194779 -5.21339433 42.84527222 -3.75585938 44.27587891 C-2.49786708 45.51113219 -1.24667463 46.75332537 0 48 C-0.66 48.66 -1.32 49.32 -2 50 C-2.40742432 49.52111328 -2.81484863 49.04222656 -3.23461914 48.54882812 C-7.75481287 43.30161912 -12.5124823 38.36644018 -17.4375 33.5 C-18.16904297 32.77296875 -18.90058594 32.0459375 -19.65429688 31.296875 C-21.43389824 29.52890501 -23.21580918 27.76333622 -25 26 C-20.03805145 20.00499003 -14.6523376 14.53572963 -9.125 9.0625 C-8.24585937 8.18787109 -7.36671875 7.31324219 -6.4609375 6.41210938 C-4.3095654 4.27242952 -2.15588208 2.13513403 0 0 Z " fill="#0069E8" transform="translate(54,79)"/>
<path d="M0 0 C7.875 6.75 7.875 6.75 11.18359375 10.0859375 C12.23256836 11.13974609 12.23256836 11.13974609 13.30273438 12.21484375 C14.00720703 12.92769531 14.71167969 13.64054688 15.4375 14.375 C16.53481445 15.47908203 16.53481445 15.47908203 17.65429688 16.60546875 C19.43852723 18.40136074 21.22036124 20.19955985 23 22 C20 22 20 22 18.00708008 20.34765625 C17.26868896 19.59355469 16.53029785 18.83945313 15.76953125 18.0625 C14.96708984 17.25039062 14.16464844 16.43828125 13.33789062 15.6015625 C12.50451172 14.74304688 11.67113281 13.88453125 10.8125 13 C9.96751953 12.14148438 9.12253906 11.28296875 8.25195312 10.3984375 C6.16111702 8.2721635 4.07758017 6.13921536 2 4 C-1.11302167 5.39290583 -3.32579154 7.03400621 -5.79296875 9.37890625 C-6.85656616 10.384375 -6.85656616 10.384375 -7.94165039 11.41015625 C-8.68278076 12.12042969 -9.42391113 12.83070313 -10.1875 13.5625 C-11.32336548 14.64144531 -11.32336548 14.64144531 -12.48217773 15.7421875 C-17.73623761 20.74766456 -22.93372731 25.80382289 -28 31 C-28.66 30.67 -29.32 30.34 -30 30 C-20.1 20.1 -10.2 10.2 0 0 Z " fill="#F033E9" transform="translate(203,128)"/>
<path d="M0 0 C15.18 0 30.36 0 46 0 C39.25 7.875 39.25 7.875 35.9140625 11.18359375 C34.86025391 12.23256836 34.86025391 12.23256836 33.78515625 13.30273438 C32.71587891 14.35944336 32.71587891 14.35944336 31.625 15.4375 C30.88894531 16.16904297 30.15289062 16.90058594 29.39453125 17.65429688 C27.59863926 19.43852723 25.80044015 21.22036124 24 23 C23.34 22.67 22.68 22.34 22 22 C22.57032959 21.43490723 23.14065918 20.86981445 23.72827148 20.28759766 C26.30060675 17.73599645 28.86909337 15.18055542 31.4375 12.625 C32.33533203 11.73554687 33.23316406 10.84609375 34.15820312 9.9296875 C35.01220703 9.07890625 35.86621094 8.228125 36.74609375 7.3515625 C37.53685303 6.56604004 38.3276123 5.78051758 39.14233398 4.97119141 C41.05371018 3.13255698 41.05371018 3.13255698 42 1 C28.14 1 14.28 1 0 1 C0 0.67 0 0.34 0 0 Z " fill="#D076FE" transform="translate(154,79)"/>
<path d="M0 0 C0.99 0.33 1.98 0.66 3 1 C-6.57 10.57 -16.14 20.14 -26 30 C-26.66 29.34 -27.32 28.68 -28 28 C-18.76 18.76 -9.52 9.52 0 0 Z " fill="#031A45" transform="translate(161,118)"/>
<path d="M0 0 C0.33 0.99 0.66 1.98 1 3 C-2.3 6.3 -5.6 9.6 -9 13 C-3.17371096 20.15801225 3.4382985 26.52591766 10 33 C9.67 33.66 9.34 34.32 9 35 C2.07 28.07 -4.86 21.14 -12 14 C-9.99006295 9.98012591 -8.06153611 7.85483005 -4.875 4.75 C-3.96492188 3.85796875 -3.05484375 2.9659375 -2.1171875 2.046875 C-1.41851562 1.37140625 -0.71984375 0.6959375 0 0 Z " fill="#7A0AB1" transform="translate(91,141)"/>
<path d="M0 0 C0.66 0.33 1.32 0.66 2 1 C-2.47236248 6.41391248 -7.31353977 11.45021392 -12.25 16.4375 C-12.86439941 17.06479004 -13.47879883 17.69208008 -14.11181641 18.33837891 C-14.69882324 18.9266748 -15.28583008 19.5149707 -15.890625 20.12109375 C-16.41688477 20.6514624 -16.94314453 21.18183105 -17.48535156 21.72827148 C-19 23 -19 23 -22 24 C-20.4608199 20.33247995 -18.24514548 18.01419427 -15.4296875 15.234375 C-14.08583984 13.90019531 -14.08583984 13.90019531 -12.71484375 12.5390625 C-11.77769531 11.61867188 -10.84054688 10.69828125 -9.875 9.75 C-8.92011363 8.80515144 -7.96568141 7.85984367 -7.01171875 6.9140625 C-4.67890913 4.60481662 -2.34155914 2.30036797 0 0 Z " fill="#0096EC" transform="translate(28,105)"/>
<path d="M0 0 C15.18 0 30.36 0 46 0 C39.25 7.875 39.25 7.875 35 11 C36.76239842 6.83433101 38.84604786 4.78474257 42 1 C28.14 1 14.28 1 0 1 C0 0.67 0 0.34 0 0 Z " fill="#00DEF9" transform="translate(55,79)"/>
<path d="M0 0 C0.99 0.99 1.98 1.98 3 3 C-4.26 10.26 -11.52 17.52 -19 25 C-19.66 24.34 -20.32 23.68 -21 23 C-19.71034824 21.62437146 -18.37310707 20.29233607 -17 19 C-16.34 19 -15.68 19 -15 19 C-14.34 17.68 -13.68 16.36 -13 15 C-12.34 15 -11.68 15 -11 15 C-10.731875 14.360625 -10.46375 13.72125 -10.1875 13.0625 C-9 11 -9 11 -6 10 C-5.31513275 8.67592331 -4.65129797 7.34090759 -4 6 C-2.66666667 4.66666667 -1.33333333 3.33333333 0 2 C0 1.34 0 0.68 0 0 Z " fill="#0C77F4" transform="translate(48,124)"/>
<path d="M0 0 C5.43733055 4.52991796 10.46458931 9.34294216 15.4375 14.375 C16.16904297 15.11105469 16.90058594 15.84710938 17.65429688 16.60546875 C19.43852723 18.40136074 21.22036124 20.19955985 23 22 C20 22 20 22 18.08642578 20.34765625 C17.3798584 19.59355469 16.67329102 18.83945313 15.9453125 18.0625 C15.16542969 17.25039062 14.38554687 16.43828125 13.58203125 15.6015625 C11.94768898 13.87108245 10.31745268 12.13671506 8.69140625 10.3984375 C7.90894531 9.58632812 7.12648437 8.77421875 6.3203125 7.9375 C5.61148926 7.18339844 4.90266602 6.42929688 4.17236328 5.65234375 C1.56735339 3.67092018 0.19677434 3.64721387 -3 4 C-2.01 2.68 -1.02 1.36 0 0 Z " fill="#E100CC" transform="translate(203,128)"/>
<path d="M0 0 C0.99 0.33 1.98 0.66 3 1 C-8.52164009 12.70615034 -8.52164009 12.70615034 -14 17 C-14.66 16.67 -15.32 16.34 -16 16 C-10.72 10.72 -5.44 5.44 0 0 Z " fill="#F084EC" transform="translate(172,159)"/>
<path d="M0 0 C0.33 0.99 0.66 1.98 1 3 C-0.61886415 4.67262717 -2.2452729 6.33795537 -3.875 8 C-5.23238281 9.3921875 -5.23238281 9.3921875 -6.6171875 10.8125 C-9 13 -9 13 -11 13 C-9.46356148 9.31930113 -7.21849055 7.01224796 -4.375 4.25 C-3.55773437 3.45078125 -2.74046875 2.6515625 -1.8984375 1.828125 C-0.95871094 0.92320312 -0.95871094 0.92320312 0 0 Z " fill="#8C23D2" transform="translate(91,141)"/>
<path d="M0 0 C0.99 0.33 1.98 0.66 3 1 C-4.29840547 8.48291572 -4.29840547 8.48291572 -8 11 C-8.66 10.67 -9.32 10.34 -10 10 C-6.7 6.7 -3.4 3.4 0 0 Z " fill="#F00DE5" transform="translate(199,132)"/>
<path d="M0 0 C0 4.35637821 -2.27897057 6.05610053 -5.109375 9.19140625 C-7.24427494 11.23367623 -9.12212703 12.30233382 -12 13 C-8.19524578 8.43969176 -4.25030379 4.14910608 0 0 Z " fill="#001738" transform="translate(114,165)"/>
<path d="M0 0 C0.99 0.33 1.98 0.66 3 1 C1.02 2.98 -0.96 4.96 -3 7 C-3.99 6.67 -4.98 6.34 -6 6 C-4.02 4.02 -2.04 2.04 0 0 Z " fill="#F45EF1" transform="translate(172,159)"/>
</svg>
