<?xml version="1.0" encoding="UTF-8"?>
<svg version="1.1" xmlns="http://www.w3.org/2000/svg" width="128" height="128">
<path d="M0 0 C42.24 0 84.48 0 128 0 C128 42.24 128 84.48 128 128 C85.76 128 43.52 128 0 128 C0 85.76 0 43.52 0 0 Z " fill="#060D33" transform="translate(0,0)"/>
<path d="M0 0 C42.24 0 84.48 0 128 0 C128.4021875 15.71625 128.4021875 15.71625 128.8125 31.75 C128.93085205 35.03420898 129.0492041 38.31841797 129.17114258 41.70214844 C129.63529474 63.69607465 129.63529474 63.69607465 125.2878418 69.51855469 C122.2267556 72.66868347 118.77588724 74.78964274 115 77 C112.83589093 78.90345586 112.83589093 78.90345586 111.10546875 80.796875 C110.60595703 81.29960938 110.10644531 81.80234375 109.59179688 82.3203125 C109.12837891 82.79210937 108.66496094 83.26390625 108.1875 83.75 C107.67380859 84.26820312 107.16011719 84.78640625 106.63085938 85.3203125 C105.41808805 86.54441813 104.20861269 87.77178819 103 89 C102.34 88.67 101.68 88.34 101 88 C108.59 80.41 116.18 72.82 124 65 C121.13708465 59.2741693 117.15302748 54.97470388 112.875 50.25 C112.08351563 49.26644531 111.29203125 48.28289063 110.4765625 47.26953125 C104.28736928 40.58927929 98.48069845 38.65310443 89.5078125 38.203125 C79.5948905 38.245899 73.63304657 41.28488226 66.5625 48.09375 C63.2595646 51.46598123 60.12697744 54.96523956 57 58.5 C55.3326474 60.28800134 53.65949537 62.0706129 51.98046875 63.84765625 C47.91806709 68.17194294 43.9321026 72.55707928 40 77 C38.87434093 76.0402279 37.74939642 75.0796177 36.62475586 74.11865234 C35.99822617 73.58380219 35.37169647 73.04895203 34.72618103 72.49789429 C32.00126714 70.13334916 29.51895952 67.58039756 27 65 C28.53271547 61.34968275 30.72153877 59.06060249 33.53515625 56.3046875 C34.42654297 55.42425781 35.31792969 54.54382812 36.23632812 53.63671875 C37.16896484 52.72535156 38.10160156 51.81398437 39.0625 50.875 C40.90972167 49.06210385 42.75488421 47.24710642 44.59765625 45.4296875 C45.41758057 44.62772949 46.23750488 43.82577148 47.08227539 42.99951172 C49.0514634 41.14403639 49.0514634 41.14403639 50 39 C42.06856753 37.75922369 32.44385941 36.60150296 25.32385254 41.04638672 C17.20607159 47.16097101 10.47488415 55.23068214 4 63 C5.3584202 66.04332765 6.88463024 68.12309151 9.2578125 70.453125 C9.88300781 71.071875 10.50820312 71.690625 11.15234375 72.328125 C12.12880859 73.27945313 12.12880859 73.27945313 13.125 74.25 C13.78371094 74.8996875 14.44242188 75.549375 15.12109375 76.21875 C16.74296643 77.81711727 18.3693281 79.41061897 20 81 C17 81 17 81 15.31420898 79.63891602 C14.71423096 79.01686279 14.11425293 78.39480957 13.49609375 77.75390625 C12.83802734 77.08166016 12.17996094 76.40941406 11.50195312 75.71679688 C10.82068359 75.00587891 10.13941406 74.29496094 9.4375 73.5625 C8.08417464 72.1658886 6.72880226 70.77125698 5.37109375 69.37890625 C4.77224365 68.7557251 4.17339355 68.13254395 3.55639648 67.49047852 C2.0520826 65.90286039 2.0520826 65.90286039 0 65 C0 43.55 0 22.1 0 0 Z " fill="#060C32" transform="translate(0,0)"/>
<path d="M0 0 C-1.5391801 3.66752005 -3.75485452 5.98580573 -6.5703125 8.765625 C-7.46621094 9.65507813 -8.36210938 10.54453125 -9.28515625 11.4609375 C-10.22230469 12.38132812 -11.15945312 13.30171875 -12.125 14.25 C-13.07988637 15.19484856 -14.03431859 16.14015633 -14.98828125 17.0859375 C-17.32109087 19.39518338 -19.65844086 21.69963203 -22 24 C-20.30413874 27.63303084 -18.26199512 29.94549046 -15.375 32.75 C-14.55773438 33.54921875 -13.74046875 34.3484375 -12.8984375 35.171875 C-12.27195313 35.77515625 -11.64546875 36.3784375 -11 37 C-5.97425192 32.86442278 -1.65459768 28.52566151 2.62109375 23.6328125 C25.17748561 -1.47088452 25.17748561 -1.47088452 36.53540039 -3.38525391 C47.24743859 -3.57810123 53.82143239 1.5604536 61.20336914 8.65209961 C66.08500673 13.52351049 70.60556396 18.6871127 75 24 C70.63434066 33.9134138 60.08236208 44.08481352 51 50 C43.4358743 52.35487991 35.67301208 51.52014509 28 50 C29.5391801 46.33247995 31.75485452 44.01419427 34.5703125 41.234375 C35.46621094 40.34492187 36.36210938 39.45546875 37.28515625 38.5390625 C38.22230469 37.61867187 39.15945312 36.69828125 40.125 35.75 C41.07988637 34.80515144 42.03431859 33.85984367 42.98828125 32.9140625 C45.32109087 30.60481662 47.65844086 28.30036797 50 26 C48.30413874 22.36696916 46.26199512 20.05450954 43.375 17.25 C42.55773437 16.45078125 41.74046875 15.6515625 40.8984375 14.828125 C40.27195312 14.22484375 39.64546875 13.6215625 39 13 C33.97425192 17.13557722 29.65459768 21.47433849 25.37890625 26.3671875 C2.82251439 51.47088452 2.82251439 51.47088452 -8.53540039 53.38525391 C-19.24743859 53.57810123 -25.82143239 48.4395464 -33.20336914 41.34790039 C-38.08500673 36.47648951 -42.60556396 31.3128873 -47 26 C-38.39219843 6.45365151 -20.51940697 -4.06521917 0 0 Z " fill="#AF47F8" transform="translate(50,39)"/>
<path d="M0 0 C4.32504836 1.65863505 7.09418825 4.871041 10.25 8.125 C11.08144531 8.96998047 11.08144531 8.96998047 11.9296875 9.83203125 C13.29104485 11.21686028 14.64614859 12.60783204 16 14 C11.63434066 23.9134138 1.08236208 34.08481352 -8 40 C-15.5641257 42.35487991 -23.32698792 41.52014509 -31 40 C-29.4608199 36.33247995 -27.24514548 34.01419427 -24.4296875 31.234375 C-23.53378906 30.34492187 -22.63789062 29.45546875 -21.71484375 28.5390625 C-20.77769531 27.61867188 -19.84054688 26.69828125 -18.875 25.75 C-17.92011363 24.80515144 -16.96568141 23.85984367 -16.01171875 22.9140625 C-13.67890913 20.60481662 -11.34155914 18.30036797 -9 16 C-9.66 14.02 -10.32 12.04 -11 10 C-9.73427767 8.84852339 -8.46222094 7.70400686 -7.1875 6.5625 C-6.47980469 5.92441406 -5.77210937 5.28632812 -5.04296875 4.62890625 C-3 3 -3 3 0 2 C0 1.34 0 0.68 0 0 Z " fill="#FD1EF7" transform="translate(109,49)"/>
<path d="M0 0 C-1.53652003 3.63879675 -3.72420759 5.98214646 -6.5 8.765625 C-7.386875 9.65507813 -8.27375 10.54453125 -9.1875 11.4609375 C-10.5796875 12.84152344 -10.5796875 12.84152344 -12 14.25 C-13.3921875 15.65378906 -13.3921875 15.65378906 -14.8125 17.0859375 C-15.699375 17.97023438 -16.58625 18.85453125 -17.5 19.765625 C-18.3146875 20.57805664 -19.129375 21.39048828 -19.96875 22.22753906 C-22 24 -22 24 -24 24 C-24.020625 24.680625 -24.04125 25.36125 -24.0625 26.0625 C-25.43760303 30.37115615 -28.27149421 33.45316632 -32 36 C-34.40234375 36.51171875 -34.40234375 36.51171875 -37 36 C-39.67578125 33.8125 -39.67578125 33.8125 -42.3125 31 C-43.19550781 30.071875 -44.07851563 29.14375 -44.98828125 28.1875 C-45.98408203 27.1046875 -45.98408203 27.1046875 -47 26 C-38.39219843 6.45365151 -20.51940697 -4.06521917 0 0 Z " fill="#0080F5" transform="translate(50,39)"/>
<path d="M0 0 C4.33333333 4.33333333 8.66666667 8.66666667 13 13 C15.31 11.35 17.62 9.7 20 8 C20 11 20 11 19.75 14.4375 C19.66710594 18.0200291 19.66710594 18.0200291 21.8125 20.3125 C23.4922858 21.60833476 25.23478455 22.8231897 27 24 C22.97305601 28.02694399 15.81923027 26.89221815 10.40039062 27.00732422 C3.79887922 26.8423852 -0.43726378 26.00099323 -5.33276367 21.44360352 C-12 14.17105359 -12 14.17105359 -12 11 C-10.948125 10.938125 -10.948125 10.938125 -9.875 10.875 C-5.91223888 9.66894227 -3.45040589 7.31114974 -1 4 C-0.3076941 1.88607312 -0.3076941 1.88607312 0 0 Z " fill="#4355E3" transform="translate(26,63)"/>
<path d="M0 0 C4.32504836 1.65863505 7.09418825 4.871041 10.25 8.125 C10.80429688 8.68832031 11.35859375 9.25164063 11.9296875 9.83203125 C13.29104485 11.21686028 14.64614859 12.60783204 16 14 C14.53374144 17.34820898 12.66341553 19.69266359 10.125 22.3125 C9.44695312 23.03050781 8.76890625 23.74851562 8.0703125 24.48828125 C6 26 6 26 4.0390625 26.0078125 C1.24875168 24.62869336 -0.57599332 22.78268656 -2.75 20.5625 C-3.54921875 19.75941406 -4.3484375 18.95632812 -5.171875 18.12890625 C-7 16 -7 16 -7 14 C-8.32 13.34 -9.64 12.68 -11 12 C-11 10 -11 10 -9.35546875 8.30859375 C-8.28232422 7.38240234 -8.28232422 7.38240234 -7.1875 6.4375 C-6.47980469 5.81746094 -5.77210937 5.19742188 -5.04296875 4.55859375 C-3 3 -3 3 0 2 C0 1.34 0 0.68 0 0 Z " fill="#EB38F9" transform="translate(109,49)"/>
<path d="M0 0 C22.57345679 -1.56481481 22.57345679 -1.56481481 27.59765625 2.00390625 C29.74397823 4.23398714 31.46664371 6.31662649 33 9 C31.87469572 12.37591285 30.83946383 13.28446799 28.1875 15.5625 C27.50042969 16.16191406 26.81335938 16.76132812 26.10546875 17.37890625 C24 19 24 19 20 21 C17.36 18.36 14.72 15.72 12 13 C14 9 14 9 21 2 C14.07 1.67 7.14 1.34 0 1 C0 0.67 0 0.34 0 0 Z " fill="#B92BFA" transform="translate(77,39)"/>
<path d="M0 0 C0 3 0 3 -2.5 5.6875 C-3.325 6.450625 -4.15 7.21375 -5 8 C-4.731875 8.53625 -4.46375 9.0725 -4.1875 9.625 C-3.27453399 11.45093203 -2.43360181 13.31301398 -1.625 15.1875 C-0.30620267 18.13893941 -0.30620267 18.13893941 2.1875 18.875 C2.785625 18.91625 3.38375 18.9575 4 19 C4 19.66 4 20.32 4 21 C-3.59 21 -11.18 21 -19 21 C-17.19522505 17.3904501 -15.88074534 15.64371929 -13.0859375 12.890625 C-12.32539062 12.13652344 -11.56484375 11.38242188 -10.78125 10.60546875 C-9.9871875 9.82816406 -9.193125 9.05085938 -8.375 8.25 C-7.57320312 7.45722656 -6.77140625 6.66445312 -5.9453125 5.84765625 C-3.96797154 3.89385507 -1.98611091 1.94487897 0 0 Z " fill="#ED4AEB" transform="translate(97,68)"/>
<path d="M0 0 C7.59 0 15.18 0 23 0 C21.19613762 3.60772477 19.7942051 5.47634052 17 8.25 C15.948125 9.30960938 15.948125 9.30960938 14.875 10.390625 C13 12 13 12 11 12 C11 11.01 11 10.02 11 9 C10.360625 8.773125 9.72125 8.54625 9.0625 8.3125 C7 7 7 7 6.25 4.375 C6.12625 3.199375 6.12625 3.199375 6 2 C4.02 2.33 2.04 2.66 0 3 C0 2.01 0 1.02 0 0 Z " fill="#00B4FA" transform="translate(27,39)"/>
<path d="M0 0 C0.495 1.485 0.495 1.485 1 3 C-3.61589791 7.69191026 -8.24347602 12.37206038 -12.87939453 17.04418945 C-14.45535874 18.63524786 -16.02862093 20.22898736 -17.59912109 21.82543945 C-19.85591344 24.11858569 -22.12222056 26.40194097 -24.390625 28.68359375 C-25.09181458 29.40026718 -25.79300415 30.11694061 -26.51544189 30.85533142 C-27.17582458 31.5159407 -27.83620728 32.17654999 -28.51660156 32.85717773 C-29.09396057 33.44119858 -29.67131958 34.02521942 -30.26617432 34.62693787 C-32.1764418 36.1397289 -33.61870041 36.59439783 -36 37 C-31.82222235 32.01407125 -27.46872723 27.33295716 -22.8515625 22.75390625 C-22.19417084 22.09792953 -21.53677917 21.44195282 -20.85946655 20.76609802 C-18.78367138 18.69584732 -16.70440573 16.62912349 -14.625 14.5625 C-13.2067992 13.14932138 -11.78882824 11.73591206 -10.37109375 10.32226562 C-6.91671223 6.87883935 -3.4592163 3.43856901 0 0 Z " fill="#0A1B4C" transform="translate(88,51)"/>
<path d="M0 0 C0.66 0.66 1.32 1.32 2 2 C1.67 2.33 1.34 2.66 1 3 C0.47781529 8.03225618 0.47781529 8.03225618 2.8125 12.3125 C4.4922858 13.60833476 6.23478455 14.8231897 8 16 C6 18 6 18 3.56982422 18.22705078 C2.5748291 18.21657715 1.57983398 18.20610352 0.5546875 18.1953125 C-0.52167969 18.18886719 -1.59804688 18.18242188 -2.70703125 18.17578125 C-3.83496094 18.15902344 -4.96289062 18.14226562 -6.125 18.125 C-7.26066406 18.11597656 -8.39632812 18.10695313 -9.56640625 18.09765625 C-12.37781299 18.07403098 -15.18880298 18.04109013 -18 18 C-18 17.34 -18 16.68 -18 16 C-11.4 16 -4.8 16 2 16 C-0.28510345 12.19149425 -1.87595585 9.90859283 -5 7 C-3.70700306 4.11562221 -2.34058637 2.12780579 0 0 Z " fill="#4E40D1" transform="translate(45,71)"/>
<path d="M0 0 C1.06541016 0.03158203 2.13082031 0.06316406 3.22851562 0.09570312 C5.84273275 0.17776375 8.4511458 0.29247789 11.0625 0.4375 C6.99411827 5.3286484 2.71811922 9.91100753 -1.8125 14.375 C-2.70195313 15.25768555 -2.70195313 15.25768555 -3.609375 16.15820312 C-5.04976466 17.58697674 -6.4932967 19.01258132 -7.9375 20.4375 C-8.5975 20.1075 -9.2575 19.7775 -9.9375 19.4375 C-9.45804932 18.96328613 -8.97859863 18.48907227 -8.48461914 18.00048828 C-6.32048162 15.85709665 -4.16020353 13.7098561 -2 11.5625 C-1.24525391 10.81613281 -0.49050781 10.06976563 0.28710938 9.30078125 C1.00576172 8.58535156 1.72441406 7.86992188 2.46484375 7.1328125 C3.12991943 6.47297363 3.79499512 5.81313477 4.48022461 5.13330078 C6.1438711 3.51076068 6.1438711 3.51076068 7.0625 1.4375 C-5.13446965 0.91961882 -5.13446965 0.91961882 -15.5 6.5 C-16.68632017 7.77602302 -17.84947529 9.07669417 -18.9375 10.4375 C-18.9375 6.93066616 -18.44804097 6.32993826 -16.18359375 3.77734375 C-11.31936149 -0.88099508 -6.40351983 -0.36171341 0 0 Z " fill="#D374FE" transform="translate(87.9375,39.5625)"/>
<path d="M0 0 C7.92 0 15.84 0 24 0 C24.33 0.66 24.66 1.32 25 2 C21.27653164 6.42094803 17.70478962 10.57833482 13 14 C13 10 13 10 14.75 7.859375 C16.83333333 5.90625 18.91666667 3.953125 21 2 C14.07 1.67 7.14 1.34 0 1 C0 0.67 0 0.34 0 0 Z " fill="#9431E8" transform="translate(77,39)"/>
<path d="M0 0 C7.59 0 15.18 0 23 0 C20.57142857 4.85714286 20.57142857 4.85714286 18 7 C17.34 7 16.68 7 16 7 C16 5.35 16 3.7 16 2 C8.08 2.495 8.08 2.495 0 3 C0 2.01 0 1.02 0 0 Z " fill="#00BCE6" transform="translate(27,39)"/>
<path d="M0 0 C0.99 1.0209375 0.99 1.0209375 2 2.0625 C5.49468234 5.56725347 9.25130779 8.77221788 13 12 C11.35 13.98 9.7 15.96 8 18 C7.34 17.67 6.68 17.34 6 17 C5.77198867 14.98047104 5.54663521 12.96047628 5.3515625 10.9375 C4.90719648 8.48854949 3.93212932 7.5121012 2 6 C2 5.34 2 4.68 2 4 C0.35 4.33 -1.3 4.66 -3 5 C-2.01 3.35 -1.02 1.7 0 0 Z " fill="#DF02CD" transform="translate(101,63)"/>
<path d="M0 0 C1.32 0.66 2.64 1.32 4 2 C2.87469572 5.37591285 1.83946383 6.28446799 -0.8125 8.5625 C-1.49957031 9.16191406 -2.18664062 9.76132812 -2.89453125 10.37890625 C-4.86555845 11.89648749 -6.73964261 12.97902958 -9 14 C-9.33 13.01 -9.66 12.02 -10 11 C-9.34 11 -8.68 11 -8 11 C-7.73445313 10.41734375 -7.46890625 9.8346875 -7.1953125 9.234375 C-5.96697004 6.93825772 -4.59685061 5.19643982 -2.875 3.25 C-2.33617188 2.63640625 -1.79734375 2.0228125 -1.2421875 1.390625 C-0.62730469 0.70226563 -0.62730469 0.70226563 0 0 Z " fill="#C92FF9" transform="translate(106,46)"/>
<path d="M0 0 C1.32 0.66 2.64 1.32 4 2 C0 6 -4 10 -8 14 C-8.66 13.67 -9.32 13.34 -10 13 C-8.60366893 9.81440048 -6.95442507 7.76056155 -4.4375 5.375 C-1.85984611 2.95478041 -1.85984611 2.95478041 0 0 Z " fill="#A826F8" transform="translate(101,41)"/>
<path d="M0 0 C0.66 0.66 1.32 1.32 2 2 C1.67 2.33 1.34 2.66 1 3 C0.47781529 8.03225618 0.47781529 8.03225618 2.8125 12.3125 C4.4922858 13.60833476 6.23478455 14.8231897 8 16 C4 16 4 16 1.640625 14.03125 C0.45726562 12.77828125 0.45726562 12.77828125 -0.75 11.5 C-1.94882812 10.24703125 -1.94882812 10.24703125 -3.171875 8.96875 C-4.07679687 7.99421875 -4.07679687 7.99421875 -5 7 C-3.64062915 4.1394109 -2.35479531 2.14072301 0 0 Z " fill="#7F0EB9" transform="translate(45,71)"/>
<path d="M0 0 C0.66 0 1.32 0 2 0 C1.84595887 5.08335725 -1.02068432 7.35754718 -4.50390625 10.64453125 C-4.99761719 11.09183594 -5.49132812 11.53914063 -6 12 C-7.32 11.34 -8.64 10.68 -10 10 C-8.71451591 8.66070495 -7.42141845 7.32871357 -6.125 6 C-5.04605469 4.88625 -5.04605469 4.88625 -3.9453125 3.75 C-2 2 -2 2 0 2 C0 1.34 0 0.68 0 0 Z " fill="#1974F3" transform="translate(24,63)"/>
<path d="M0 0 C2.93200474 2.85276137 5.64315404 5.65079784 8 9 C5.04709864 7.62901008 2.39580248 6.22467373 0 4 C0 2.68 0 1.36 0 0 Z M-12 11 C-10.68 11.33 -9.36 11.66 -8 12 C-8 12.99 -8 13.98 -8 15 C-6.68 15.66 -5.36 16.32 -4 17 C-4.66 17.66 -5.32 18.32 -6 19 C-7.00596297 18.0479279 -8.00461563 17.08812654 -9 16.125 C-9.556875 15.59132813 -10.11375 15.05765625 -10.6875 14.5078125 C-12 13 -12 13 -12 11 Z " fill="#2C65DF" transform="translate(26,63)"/>
<path d="M0 0 C0.33 0.99 0.66 1.98 1 3 C-0.45217676 4.50596108 -1.91192861 6.00462104 -3.375 7.5 C-4.18710938 8.3353125 -4.99921875 9.170625 -5.8359375 10.03125 C-8 12 -8 12 -10 12 C-8.52278578 8.54798361 -6.56205999 6.35038064 -3.875 3.75 C-3.15054688 3.04359375 -2.42609375 2.3371875 -1.6796875 1.609375 C-1.12539062 1.07828125 -0.57109375 0.5471875 0 0 Z " fill="#0B1744" transform="translate(88,51)"/>
<path d="M0 0 C0.66 0.33 1.32 0.66 2 1 C2.625 3.5625 2.625 3.5625 3 6 C0.03 6 -2.94 6 -6 6 C-4 4 -2 2 0 0 Z " fill="#FF80FF" transform="translate(85,82)"/>
<path d="M0 0 C1.65 1.32 3.3 2.64 5 4 C4.34 5.32 3.68 6.64 3 8 C2.01 8 1.02 8 0 8 C0 5.36 0 2.72 0 0 Z " fill="#F205E0" transform="translate(107,72)"/>
<path d="M0 0 C0.66 0.66 1.32 1.32 2 2 C1.34 4.31 0.68 6.62 0 9 C-1.32 8.01 -2.64 7.02 -4 6 C-2.84826645 3.53199953 -1.95216435 1.95216435 0 0 Z " fill="#8E23D4" transform="translate(45,71)"/>
<path d="M0 0 C2 1.375 2 1.375 4 3 C4 3.66 4 4.32 4 5 C5.65 5.33 7.3 5.66 9 6 C9 6.33 9 6.66 9 7 C6.69 7 4.38 7 2 7 C1.34 4.69 0.68 2.38 0 0 Z " fill="#FF64FF" transform="translate(86,81)"/>
<path d="M0 0 C0.66 0.66 1.32 1.32 2 2 C-0.97 4.64 -3.94 7.28 -7 10 C-7 7 -7 7 -5.46875 5.17578125 C-4.8190625 4.56089844 -4.169375 3.94601563 -3.5 3.3125 C-2.8503125 2.68988281 -2.200625 2.06726562 -1.53125 1.42578125 C-0.77328125 0.72001953 -0.77328125 0.72001953 0 0 Z " fill="#CB60FF" transform="translate(76,40)"/>
</svg>
