<?xml version="1.0" encoding="UTF-8"?>
<svg version="1.1" xmlns="http://www.w3.org/2000/svg" width="512" height="512">
<path d="M0 0 C168.96 0 337.92 0 512 0 C512 168.96 512 337.92 512 512 C343.04 512 174.08 512 0 512 C0 343.04 0 174.08 0 0 Z " fill="#060D33" transform="translate(0,0)"/>
<path d="M0 0 C1.54504904 0.12286629 1.54504904 0.12286629 3.12131119 0.24821472 C15.74918642 1.33157547 28.13515334 3.23097759 40.5 6 C40.5 6.66 40.5 7.32 40.5 8 C39.06915283 9.41140079 39.06915283 9.41140079 37.06738281 11.06471252 C32.2797483 15.1396056 27.85567663 19.5109577 23.421875 23.96459961 C22.55263901 24.83368958 21.68340302 25.70277954 20.78782654 26.59820557 C18.42911947 28.95748564 16.07263797 31.3189463 13.71715927 33.68144679 C11.24594899 36.15895265 8.77186387 38.6335844 6.2980957 41.10853577 C1.62498253 45.78474409 -3.04557796 50.46349326 -7.71520329 55.14318424 C-13.0361474 60.47534619 -18.35996674 65.80463351 -23.68401718 71.13369358 C-34.62585719 82.08595681 -45.56412096 93.04178451 -56.5 104 C-54.78543952 107.65329648 -52.74190437 110.00019984 -49.86669922 112.86035156 C-49.39823578 113.32910706 -48.92977234 113.79786255 -48.44711304 114.28082275 C-46.90433305 115.82221432 -45.35460036 117.35640873 -43.8046875 118.890625 C-42.73093808 119.96064255 -41.65763067 121.03110381 -40.58474731 122.10198975 C-37.76479548 124.91431879 -34.93888846 127.72058889 -32.11169434 130.52563477 C-29.2257863 133.39105523 -26.34555743 136.26217168 -23.46484375 139.1328125 C-17.81543511 144.76079512 -12.15972175 150.38238884 -6.5 156 C-2.35633263 154.41629397 0.11670854 151.38993657 2.96713257 148.14083862 C3.50859283 147.53476402 4.05005309 146.92868942 4.60792124 146.30424893 C5.79541657 144.97495241 6.98043612 143.64344114 8.16330719 142.31002808 C11.46181835 138.5950828 14.78351238 134.9010407 18.10702515 131.20846558 C19.17288507 130.02402788 19.17288507 130.02402788 20.26027751 128.81566215 C30.28859455 117.70348566 40.56977082 106.82532754 50.84859276 95.94532585 C59.17119301 87.12159831 67.38682602 78.23247902 75.39599609 69.12255859 C135.08290723 1.4220203 135.08290723 1.4220203 181.7947998 -1.53170776 C213.48014223 -2.80133789 242.86341306 2.45165947 266.80557632 24.2729454 C275.17000537 32.15150993 282.64238179 40.77004848 289.9180249 49.64737713 C294.95179031 55.76715698 300.28811127 61.59294841 305.65266585 67.42224693 C316.60671589 79.33796859 327.1732815 91.53475796 337.5 104 C336.09013924 107.08451524 334.40591246 109.52040026 332.24076843 112.12554932 C331.56486412 112.93883698 330.88895981 113.75212463 330.19257355 114.59005737 C329.07570789 115.91494675 329.07570789 115.91494675 327.9362793 117.26660156 C327.14719429 118.20325653 326.35810928 119.1399115 325.54511261 120.10494995 C315.07378561 132.43926836 304.23139813 144.42724973 293.1875 156.25 C292.65833607 156.81804855 292.12917213 157.38609711 291.58397293 157.97135925 C243.86791094 209.11230822 243.86791094 209.11230822 205.90129089 210.71099854 C199.571418 210.81787107 193.30825822 210.50325739 187 210 C185.96996731 209.91808914 184.93993462 209.83617828 183.87868881 209.75178528 C171.25081358 208.66842453 158.86484666 206.76902241 146.5 204 C151.23055855 198.31198958 156.2939046 193.06985091 161.53466797 187.85180664 C162.42311905 186.96320953 163.31157013 186.07461243 164.22694397 185.15908813 C166.64413289 182.74247322 169.06350688 180.32808699 171.48391104 177.91469502 C174.02014124 175.3847499 176.5535074 172.85194005 179.08718872 170.31944275 C183.87676289 165.53296677 188.66887864 160.7490439 193.46193039 155.96605057 C198.92223607 150.51695315 204.3796755 145.06498889 209.83688521 139.61279118 C221.0547546 128.40535192 232.27618817 117.20148832 243.5 106 C238.9688601 100.63226125 238.9688601 100.63226125 234.14428711 95.53076172 C233.5602562 94.94680634 232.97622528 94.36285095 232.37449646 93.76119995 C231.76493607 93.15680084 231.15537567 92.55240173 230.52734375 91.9296875 C229.88181046 91.28556915 229.23627716 90.64145081 228.57118225 89.97781372 C226.52898268 87.94115651 224.4833229 85.90801687 222.4375 83.875 C221.0616158 82.50414023 219.68596274 81.13304842 218.31054688 79.76171875 C215.7838971 77.24319079 213.25592863 74.72600354 210.72631836 72.21044922 C210.17853729 71.66306091 209.63075623 71.11567261 209.06637573 70.55169678 C207.6058802 69.10488796 206.121297 67.68250742 204.63500977 66.26220703 C202.5 64 202.5 64 201.5 61 C200.84 61 200.18 61 199.5 61 C197.9921875 59.46875 197.9921875 59.46875 196.375 57.5 C195.83617187 56.8503125 195.29734375 56.200625 194.7421875 55.53125 C194.12730469 54.77328125 194.12730469 54.77328125 193.5 54 C189.35633263 55.58370603 186.88329146 58.61006343 184.03286743 61.85916138 C183.49140717 62.46523598 182.94994691 63.07131058 182.39207876 63.69575107 C181.20458343 65.02504759 180.01956388 66.35655886 178.83669281 67.68997192 C175.53818165 71.4049172 172.21648762 75.0989593 168.89297485 78.79153442 C168.18240157 79.58115956 167.47182829 80.37078469 166.73972249 81.18433785 C156.71140545 92.29651434 146.43022918 103.17467246 136.15140724 114.05467415 C127.82880699 122.87840169 119.61317398 131.76752098 111.60400391 140.87744141 C51.91709277 208.5779797 51.91709277 208.5779797 5.2052002 211.53170776 C-26.48014223 212.80133789 -55.86341306 207.54834053 -79.80557632 185.7270546 C-88.17000537 177.84849007 -95.64238179 169.22995152 -102.9180249 160.35262287 C-107.95179031 154.23284302 -113.28811127 148.40705159 -118.65266585 142.57775307 C-129.60671589 130.66203141 -140.1732815 118.46524204 -150.5 106 C-149.09013924 102.91548476 -147.40591246 100.47959974 -145.24076843 97.87445068 C-144.56486412 97.06116302 -143.88895981 96.24787537 -143.19257355 95.40994263 C-142.07570789 94.08505325 -142.07570789 94.08505325 -140.9362793 92.73339844 C-140.14719429 91.79674347 -139.35810928 90.8600885 -138.54511261 89.89505005 C-128.07378561 77.56073164 -117.23139813 65.57275027 -106.1875 53.75 C-105.3937541 52.89792717 -105.3937541 52.89792717 -104.58397293 52.02864075 C-73.78620154 19.02031632 -48.00897025 -3.83003805 0 0 Z " fill="#AD47F5" transform="translate(162.5,151)"/>
<path d="M0 0 C7.64502363 3.52847244 12.98390314 8.70480955 18.85107422 14.62402344 C19.72001816 15.49267532 20.5889621 16.36132721 21.48423767 17.25630188 C23.85316014 19.62637478 26.21757171 22.00078198 28.58005285 24.37726498 C31.05482409 26.86458159 33.53530159 29.34619456 36.01516724 31.82843018 C40.70452583 36.52399238 45.38876498 41.22462715 50.0711652 45.92712712 C55.40459833 51.28295415 60.74374591 56.63306903 66.08336997 61.98272276 C77.06192975 72.98215917 88.03332742 83.98871098 99 95 C97.59013924 98.08451524 95.90591246 100.52040026 93.74076843 103.12554932 C93.06486412 103.93883698 92.38895981 104.75212463 91.69257355 105.59005737 C90.57570789 106.91494675 90.57570789 106.91494675 89.4362793 108.26660156 C88.64719429 109.20325653 87.85810928 110.1399115 87.04511261 111.10494995 C76.57378561 123.43926836 65.73139813 135.42724973 54.6875 147.25 C54.15833607 147.81804855 53.62917213 148.38609711 53.08397293 148.97135925 C5.36791094 200.11230822 5.36791094 200.11230822 -32.59870911 201.71099854 C-38.928582 201.81787107 -45.19174178 201.50325739 -51.5 201 C-52.53003269 200.91808914 -53.56006538 200.83617828 -54.62131119 200.75178528 C-67.24918642 199.66842453 -79.63515334 197.76902241 -92 195 C-87.27946529 189.32058774 -82.22260911 184.09816149 -76.98120117 178.89941406 C-76.09435638 178.01563583 -75.2075116 177.1318576 -74.29379272 176.22129822 C-72.37805514 174.31268653 -70.46145192 172.40499318 -68.54335594 170.49875641 C-65.51074224 167.48454684 -62.48257563 164.46589577 -59.45515442 161.44647217 C-50.85057334 152.86596403 -42.24000048 144.29148313 -33.62524414 135.72119141 C-28.85718067 130.97766003 -24.09270568 126.23055362 -19.3320654 121.47957206 C-16.32244444 118.47649386 -13.30837287 115.47797789 -10.29093301 112.48275709 C-7.98056554 110.18684804 -5.67669901 107.88443091 -3.37182617 105.58300781 C-2.11498268 104.33930672 -2.11498268 104.33930672 -0.83274841 103.07048035 C-0.07435669 102.31078445 0.68403503 101.55108856 1.46540833 100.76837158 C2.12775891 100.1091634 2.7901095 99.44995522 3.47253132 98.77077103 C5.22099904 96.97067126 5.22099904 96.97067126 6 94 C-10.17 77.83 -26.34 61.66 -43 45 C-41.17928993 41.35857986 -39.82322474 39.57891048 -37.00927734 36.78222656 C-36.18857758 35.96167786 -35.36787781 35.14112915 -34.52230835 34.29571533 C-33.63580597 33.41953552 -32.74930359 32.54335571 -31.8359375 31.640625 C-30.92872955 30.73624695 -30.02152161 29.8318689 -29.08682251 28.90008545 C-26.68115581 26.50203542 -24.26954264 24.11005382 -21.85662842 21.71929932 C-19.39297656 19.27614829 -16.93501423 16.82728794 -14.4765625 14.37890625 C-9.65626427 9.58066212 -4.83030157 4.78817268 0 0 Z " fill="#DA33FE" transform="translate(401,160)"/>
<path d="M0 0 C1.54504904 0.12286629 1.54504904 0.12286629 3.12131119 0.24821472 C15.74918642 1.33157547 28.13515334 3.23097759 40.5 6 C40.5 6.66 40.5 7.32 40.5 8 C39.06915283 9.41140079 39.06915283 9.41140079 37.06738281 11.06471252 C32.2797483 15.1396056 27.85567663 19.5109577 23.421875 23.96459961 C22.55263901 24.83368958 21.68340302 25.70277954 20.78782654 26.59820557 C18.42911947 28.95748564 16.07263797 31.3189463 13.71715927 33.68144679 C11.24594899 36.15895265 8.77186387 38.6335844 6.2980957 41.10853577 C1.62498253 45.78474409 -3.04557796 50.46349326 -7.71520329 55.14318424 C-13.0361474 60.47534619 -18.35996674 65.80463351 -23.68401718 71.13369358 C-34.62585719 82.08595681 -45.56412096 93.04178451 -56.5 104 C-55.05695686 107.01409306 -53.63408132 109.10472016 -51.2421875 111.453125 C-50.61699219 112.071875 -49.99179688 112.690625 -49.34765625 113.328125 C-48.69667969 113.96234375 -48.04570313 114.5965625 -47.375 115.25 C-46.71628906 115.8996875 -46.05757813 116.549375 -45.37890625 117.21875 C-43.75703357 118.81711727 -42.1306719 120.41061897 -40.5 122 C-40.83 122.66 -41.16 123.32 -41.5 124 C-46.45 119.05 -51.4 114.1 -56.5 109 C-62.25286601 113.9110213 -62.25286601 113.9110213 -67.69116211 119.07763672 C-68.43140121 119.81795135 -69.17164032 120.55826599 -69.93431091 121.3210144 C-70.70751175 122.09937653 -71.48071259 122.87773865 -72.27734375 123.6796875 C-73.08869278 124.49245148 -73.90004181 125.30521545 -74.73597717 126.14260864 C-77.3055259 128.71771738 -79.87155968 131.2962962 -82.4375 133.875 C-84.18791929 135.63043946 -85.938568 137.38565017 -87.68945312 139.140625 C-91.96229302 143.42444082 -96.23225899 147.71110472 -100.5 152 C-99.5542569 153.11228972 -98.607228 154.22348623 -97.65966797 155.33422852 C-97.13243134 155.95314468 -96.6051947 156.57206085 -96.0619812 157.20973206 C-94.01461082 159.5563298 -91.84333058 161.75278049 -89.625 163.9375 C-88.84382813 164.70964844 -88.06265625 165.48179687 -87.2578125 166.27734375 C-86.67773438 166.84582031 -86.09765625 167.41429687 -85.5 168 C-89.27978986 168 -90.22013735 166.63282698 -92.80786133 164.06539917 C-93.37682129 163.48565338 -93.94578125 162.90590759 -94.53198242 162.30859375 C-95.13714188 161.70387238 -95.74230133 161.099151 -96.36579895 160.47610474 C-98.3695455 158.47026378 -100.36245037 156.45399632 -102.35546875 154.4375 C-103.74058226 153.04679288 -105.12635845 151.65674548 -106.51277161 150.26733398 C-110.16412036 146.60451807 -113.8063719 142.93278299 -117.44683838 139.25915527 C-121.16160862 135.5137246 -124.88486125 131.77674761 -128.60742188 128.0390625 C-135.91330256 120.70098465 -143.20960612 113.35346196 -150.5 106 C-149.09013924 102.91548476 -147.40591246 100.47959974 -145.24076843 97.87445068 C-144.56486412 97.06116302 -143.88895981 96.24787537 -143.19257355 95.40994263 C-142.07570789 94.08505325 -142.07570789 94.08505325 -140.9362793 92.73339844 C-140.14719429 91.79674347 -139.35810928 90.8600885 -138.54511261 89.89505005 C-128.07378561 77.56073164 -117.23139813 65.57275027 -106.1875 53.75 C-105.3937541 52.89792717 -105.3937541 52.89792717 -104.58397293 52.02864075 C-73.78620154 19.02031632 -48.00897025 -3.83003805 0 0 Z " fill="#008EFB" transform="translate(162.5,151)"/>
<path d="M0 0 C0.66 0 1.32 0 2 0 C0.59013924 3.08451524 -1.09408754 5.52040026 -3.25923157 8.12554932 C-3.93513588 8.93883698 -4.61104019 9.75212463 -5.30742645 10.59005737 C-6.42429211 11.91494675 -6.42429211 11.91494675 -7.5637207 13.26660156 C-8.35280571 14.20325653 -9.14189072 15.1399115 -9.95488739 16.10494995 C-20.42621439 28.43926836 -31.26860187 40.42724973 -42.3125 52.25 C-42.84166393 52.81804855 -43.37082787 53.38609711 -43.91602707 53.97135925 C-91.63208906 105.11230822 -91.63208906 105.11230822 -129.59870911 106.71099854 C-135.928582 106.81787107 -142.19174178 106.50325739 -148.5 106 C-149.53003269 105.91808914 -150.56006538 105.83617828 -151.62131119 105.75178528 C-164.24918642 104.66842453 -176.63515334 102.76902241 -189 100 C-184.29596268 94.34611634 -179.26744481 89.13107473 -174.05712891 83.94360352 C-173.1784314 83.06475998 -172.29973389 82.18591644 -171.39440918 81.28044128 C-169.00407883 78.89068489 -166.61156392 76.5031572 -164.21801805 74.11662412 C-161.70981475 71.61470654 -159.20447611 69.10992361 -156.69882202 66.60545349 C-151.96237186 61.87210134 -147.22338023 57.14130232 -142.4834522 52.41143316 C-137.08360458 47.02279439 -131.68662373 41.63128826 -126.28987241 36.2395488 C-115.19641732 25.15652342 -104.0993981 14.07707378 -93 3 C-88.62101141 4.6156303 -86.16507938 6.48210435 -82.875 9.83203125 C-82.40562012 10.30565598 -81.93624023 10.7792807 -81.45263672 11.26725769 C-79.9611875 12.77540016 -78.48051048 14.29362557 -77 15.8125 C-76.00591083 16.82165603 -75.01112522 17.83012652 -74.015625 18.83789062 C-72.17528969 20.70261099 -70.34003939 22.57184594 -68.5078125 24.44458008 C-66.78538453 26.19970601 -65.04885997 27.9410746 -63.30078125 29.6706543 C-61 32 -61 32 -59.0625 34.5 C-57.38052214 36.53876104 -55.90176523 37.9859211 -53.875 39.625 C-51 42 -51 42 -49 45 C-46.60717037 45.57735798 -46.60717037 45.57735798 -44 45 C-41.66024479 43.39062511 -41.66024479 43.39062511 -39.50097656 41.08447266 C-38.21504608 39.80281723 -38.21504608 39.80281723 -36.90313721 38.49526978 C-35.99150818 37.56097137 -35.07987915 36.62667297 -34.140625 35.6640625 C-33.1871195 34.70376597 -32.23257491 33.74450015 -31.27703857 32.78622437 C-29.27911171 30.7776272 -27.28946944 28.76130443 -25.30615234 26.73828125 C-22.76192359 24.14311699 -20.20492984 21.56103844 -17.64258194 18.98377419 C-13.41025227 14.72582981 -9.18642714 10.45926277 -4.98144531 6.17431641 C-4.23485657 5.41486725 -3.48826782 4.65541809 -2.71905518 3.87295532 C-0.937488 2.10441659 -0.937488 2.10441659 0 0 Z " fill="#FD2EF7" transform="translate(498,255)"/>
<path d="M0 0 C1.1153729 0.94702607 2.229463 1.89556309 3.34301758 2.84472656 C4.27383904 3.63680511 4.27383904 3.63680511 5.22346497 4.44488525 C8.29426798 7.13295555 11.06660313 10.10153222 13.88671875 13.046875 C15.83064201 15.03391167 15.83064201 15.03391167 17.93080139 15.93299866 C20.12871435 17.06637274 21.49454348 18.26491362 23.22045898 20.02514648 C23.82466171 20.63595566 24.42886444 21.24676483 25.05137634 21.87608337 C25.69313309 22.5344368 26.33488983 23.19279022 26.99609375 23.87109375 C27.66665298 24.54922623 28.33721222 25.2273587 29.02809143 25.92604065 C31.8922894 28.82288879 34.74454739 31.73139155 37.59790039 34.63891602 C39.68484754 36.76207917 41.77779923 38.87919141 43.87109375 40.99609375 C44.83069252 41.98058754 44.83069252 41.98058754 45.80967712 42.98497009 C49.34904214 46.56387375 49.34904214 46.56387375 53.44311523 49.4519043 C57.53872147 51.93163686 60.67616144 55.39189565 64.0390625 58.7734375 C65.18307022 59.91457504 65.18307022 59.91457504 66.35018921 61.07876587 C67.95792482 62.68514327 69.56314861 64.29403804 71.16601562 65.90527344 C73.61629281 68.36625477 76.07704534 70.81639498 78.5390625 73.265625 C80.10220416 74.83008832 81.66472527 76.39517195 83.2265625 77.9609375 C83.96097565 78.69130219 84.69538879 79.42166687 85.45205688 80.17416382 C88.84234634 83.59568455 91.70366766 86.7213216 94 91 C94.66 91.66 95.32 92.32 96 93 C99.61991736 92.70831244 101.32363813 91.00384429 103.75 88.4375 C104.36359375 87.79683594 104.9771875 87.15617187 105.609375 86.49609375 C106.06828125 86.00238281 106.5271875 85.50867188 107 85 C107.66 85.33 108.32 85.66 109 86 C105.1896816 91.46368888 101.34507246 95.79358947 94.69067383 97.12731934 C89.36622918 97.84833815 84.02214925 98.02439759 78.65625 98.171875 C76.65272227 98.25146632 74.64920272 98.33126366 72.64569092 98.41125488 C66.26403065 98.63174457 59.88490439 98.69953295 53.5 98.75 C51.88936928 98.77192665 51.88936928 98.77192665 50.24620056 98.79429626 C3.9704328 99.39229564 3.9704328 99.39229564 -11.29492188 86.31011963 C-19.14405578 78.65440733 -25.26162907 69.71685231 -30.0272522 59.8795166 C-31.11621674 57.7754492 -32.35050273 56.42107576 -34.0390625 54.765625 C-34.90917969 53.90517578 -34.90917969 53.90517578 -35.796875 53.02734375 C-36.40015625 52.44082031 -37.0034375 51.85429687 -37.625 51.25 C-38.23601562 50.64800781 -38.84703125 50.04601562 -39.4765625 49.42578125 C-40.97988624 47.94594695 -42.48934856 46.47235324 -44 45 C-39.31179066 39.36431339 -34.30014592 34.16896034 -29.1015625 29.00390625 C-28.26660248 28.17036118 -27.43164246 27.3368161 -26.57138062 26.47801208 C-23.92494152 23.83713476 -21.27503241 21.19977104 -18.625 18.5625 C-16.82138357 16.76390351 -15.01799575 14.96507773 -13.21484375 13.16601562 C-8.81253739 8.77468752 -4.40738286 4.38623271 0 0 Z " fill="#4257E4" transform="translate(105,259)"/>
<path d="M0 0 C0.99 0.99 0.99 0.99 2 2 C-14.17 18.17 -30.34 34.34 -47 51 C-45.21492115 54.57015771 -43.97927456 56.25831983 -41.22460938 58.97070312 C-40.06330505 60.12209778 -40.06330505 60.12209778 -38.87854004 61.29675293 C-38.04205933 62.11663696 -37.20557861 62.936521 -36.34375 63.78125 C-35.48567749 64.63174927 -34.62760498 65.48224854 -33.74353027 66.35852051 C-31.00042222 69.07718441 -28.25101319 71.78933693 -25.5 74.5 C-21.87970268 78.0671971 -18.26598778 81.64087133 -14.65625 85.21875 C-13.81976929 86.03863403 -12.98328857 86.85851807 -12.12145996 87.70324707 C-10.96015564 88.85464172 -10.96015564 88.85464172 -9.77539062 90.02929688 C-9.09303345 90.70118042 -8.41067627 91.37306396 -7.7076416 92.06530762 C-6.02364587 93.97321014 -5.06860153 95.70878307 -4 98 C-2.74447759 99.41499193 -1.43359255 100.78183421 -0.0859375 102.109375 C0.67460938 102.86347656 1.43515625 103.61757813 2.21875 104.39453125 C3.0128125 105.17183594 3.806875 105.94914062 4.625 106.75 C5.42679687 107.54277344 6.22859375 108.33554687 7.0546875 109.15234375 C9.03202846 111.10614493 11.01388909 113.05512103 13 115 C12.67 115.66 12.34 116.32 12 117 C7.05 112.05 2.1 107.1 -3 102 C-8.75286601 106.9110213 -8.75286601 106.9110213 -14.19116211 112.07763672 C-14.93140121 112.81795135 -15.67164032 113.55826599 -16.43431091 114.3210144 C-17.20751175 115.09937653 -17.98071259 115.87773865 -18.77734375 116.6796875 C-19.58869278 117.49245148 -20.40004181 118.30521545 -21.23597717 119.14260864 C-23.8055259 121.71771738 -26.37155968 124.2962962 -28.9375 126.875 C-30.68791929 128.63043946 -32.438568 130.38565017 -34.18945312 132.140625 C-38.46229302 136.42444082 -42.73225899 140.71110472 -47 145 C-46.0542569 146.11228972 -45.107228 147.22348623 -44.15966797 148.33422852 C-43.63243134 148.95314468 -43.1051947 149.57206085 -42.5619812 150.20973206 C-40.51461082 152.5563298 -38.34333058 154.75278049 -36.125 156.9375 C-35.34382813 157.70964844 -34.56265625 158.48179687 -33.7578125 159.27734375 C-33.17773438 159.84582031 -32.59765625 160.41429687 -32 161 C-35.77978986 161 -36.72013735 159.63282698 -39.30786133 157.06539917 C-39.87682129 156.48565338 -40.44578125 155.90590759 -41.03198242 155.30859375 C-41.63714188 154.70387238 -42.24230133 154.099151 -42.86579895 153.47610474 C-44.8695455 151.47026378 -46.86245037 149.45399632 -48.85546875 147.4375 C-50.24058226 146.04679288 -51.62635845 144.65674548 -53.01277161 143.26733398 C-56.66412036 139.60451807 -60.3063719 135.93278299 -63.94683838 132.25915527 C-67.66160862 128.5137246 -71.38486125 124.77674761 -75.10742188 121.0390625 C-82.41330256 113.70098465 -89.70960612 106.35346196 -97 99 C-95.54721611 95.6632962 -93.72208531 93.47479748 -91.15292358 90.91241455 C-90.35082962 90.10757126 -89.54873566 89.30272797 -88.72233582 88.47349548 C-87.84120621 87.59955643 -86.9600766 86.72561737 -86.05224609 85.82519531 C-85.12536484 84.898022 -84.19848358 83.97084869 -83.24351501 83.01557922 C-80.70478483 80.47627542 -78.15993719 77.94318365 -75.61394835 75.41116047 C-72.95313773 72.76285563 -70.29799293 70.10888279 -67.64224243 67.45550537 C-62.61369853 62.43317668 -57.58007829 57.41596784 -52.54461539 52.40057731 C-46.81159255 46.68991216 -41.0842503 40.97356433 -35.35737872 35.25673151 C-23.57789614 23.49815187 -11.79129851 11.74673105 0 0 Z " fill="#0087FB" transform="translate(109,158)"/>
<path d="M0 0 C3.86328627 1.5847358 6.28876923 4.05956887 9.203125 7.0078125 C9.6857782 7.49329559 10.1684314 7.97877869 10.66571045 8.47897339 C12.19858562 10.02299866 13.72434004 11.57384824 15.25 13.125 C16.29120361 14.17624009 17.33286541 15.22702657 18.375 16.27734375 C20.92199464 18.84633004 23.46265177 21.42148161 26 24 C25.67 24.66 25.34 25.32 25 26 C20.05 21.05 15.1 16.1 10 11 C4.24713399 15.9110213 4.24713399 15.9110213 -1.19116211 21.07763672 C-2.30152077 22.18810867 -2.30152077 22.18810867 -3.43431091 23.3210144 C-4.20751175 24.09937653 -4.98071259 24.87773865 -5.77734375 25.6796875 C-6.58869278 26.49245148 -7.40004181 27.30521545 -8.23597717 28.14260864 C-10.8055259 30.71771738 -13.37155968 33.2962962 -15.9375 35.875 C-17.68791929 37.63043946 -19.438568 39.38565017 -21.18945312 41.140625 C-25.46229302 45.42444082 -29.73225899 49.71110472 -34 54 C-33.0542569 55.11228972 -32.107228 56.22348623 -31.15966797 57.33422852 C-30.36881302 58.26260277 -30.36881302 58.26260277 -29.5619812 59.20973206 C-27.51461082 61.5563298 -25.34333058 63.75278049 -23.125 65.9375 C-22.34382813 66.70964844 -21.56265625 67.48179687 -20.7578125 68.27734375 C-20.17773438 68.84582031 -19.59765625 69.41429687 -19 70 C-22 70 -22 70 -24.17651367 68.1640625 C-24.99869385 67.32617188 -25.82087402 66.48828125 -26.66796875 65.625 C-27.56064453 64.72265625 -28.45332031 63.8203125 -29.37304688 62.890625 C-30.31136157 61.9272427 -31.2495105 60.96369892 -32.1875 60 C-33.13667769 59.03577654 -34.08653956 58.07222608 -35.03710938 57.109375 C-37.36490319 54.74613254 -39.68543133 52.37618518 -42 50 C-40.66170384 46.44568222 -39.70198135 44.35276594 -36.6875 42 C-32.75183295 38.80737383 -29.17833859 35.5204369 -26.0625 31.5 C-23.65085484 28.57679375 -20.9327108 26.39404964 -18 24 C-15.01248138 21.16568746 -12.29516398 18.19057629 -9.625 15.0625 C-6.36604489 11.28784211 -2.86036214 8.15131603 1 5 C0.505 2.525 0.505 2.525 0 0 Z " fill="#1B75F3" transform="translate(96,249)"/>
<path d="M0 0 C0.99 0.99 0.99 0.99 2 2 C-11.54906924 15.57246789 -25.10102943 29.14204277 -38.65640259 42.70821476 C-44.95084875 49.0078091 -51.24435862 55.30833343 -57.53564453 61.61108398 C-63.02148576 67.10691729 -68.50910443 72.60096861 -73.99883175 78.09292024 C-76.90337713 80.99876506 -79.80704717 83.90547218 -82.70858765 86.8143177 C-85.44453692 89.55709867 -88.18287251 92.29747504 -90.92298698 95.03609467 C-91.92351754 96.03689836 -92.92320379 97.03854703 -93.92193794 98.04114342 C-98.32044122 102.45580778 -102.70710536 106.81143262 -107.45536804 110.85110474 C-110.28569027 113.27839612 -112.33556761 115.58958671 -114.26098633 118.81567383 C-118.89756155 125.43385904 -124.18117295 131.57670655 -132.30461884 133.56371307 C-146.12305803 135.76613772 -160.51262441 134.54738166 -174.41589355 133.84106445 C-179.89810952 133.5837372 -185.38325638 133.43857281 -190.86914062 133.28320312 C-201.5851011 132.96353415 -212.29210813 132.52179396 -223 132 C-223 131.67 -223 131.34 -223 131 C-222.12356842 131.27615143 -221.24713684 131.55230286 -220.34414673 131.83682251 C-208.58688287 135.32978713 -196.82798554 137.41390656 -184.625 138.625 C-183.63169804 138.7244051 -182.63839607 138.8238102 -181.61499405 138.92622757 C-154.5530676 141.26616025 -133.37358094 134.35249908 -112.83642578 117.19384766 C-93.80056519 101.01274453 -76.36228426 83.04858584 -59.1875 64.9375 C-58.45037057 64.16134118 -57.71324114 63.38518236 -56.95377445 62.58550358 C-37.52951256 42.11537744 -18.56102196 21.25514923 0 0 Z " fill="#041946" transform="translate(334,224)"/>
<path d="M0 0 C12.15225214 -0.16223955 24.30424638 -0.2865947 36.45736122 -0.3626852 C42.10070694 -0.39920656 47.74331139 -0.44873794 53.38623047 -0.52807617 C58.83277028 -0.60417352 64.27859748 -0.64599855 69.7256279 -0.6641407 C71.8029337 -0.67706801 73.88020078 -0.70231298 75.95720291 -0.7401104 C78.86897061 -0.79098816 81.77780022 -0.7979214 84.68994141 -0.79467773 C85.97603806 -0.83242813 85.97603806 -0.83242813 87.28811646 -0.87094116 C90.87717468 -0.82772647 93.10229079 -0.75837138 95.90793991 1.61179924 C97.40613579 3.34621517 98.7445899 5.08436244 100 7 C99.4225 6.67 98.845 6.34 98.25 6 C95.80116138 4.72924102 95.80116138 4.72924102 92 5 C89.85188608 6.56638537 89.85188608 6.56638537 87.78222656 8.76367188 C86.96167786 9.58452271 86.14112915 10.40537354 85.29571533 11.25109863 C84.41953552 12.14792358 83.54335571 13.04474854 82.640625 13.96875 C81.73624695 14.87878784 80.8318689 15.78882568 79.90008545 16.72644043 C77.49753938 19.14424841 75.10724727 21.57382711 72.71929932 24.00604248 C70.27978094 26.48650155 67.82887904 28.95565529 65.37890625 31.42578125 C60.57472653 36.27284151 55.783396 41.13243028 51 46 C52.53956134 49.65881177 54.74089057 51.9829179 57.54150391 54.76855469 C58.00021378 55.22755661 58.45892365 55.68655853 58.93153381 56.1594696 C60.4418491 57.66839675 61.95911388 59.17012454 63.4765625 60.671875 C64.5278917 61.71947224 65.57877885 62.76751328 66.62924194 63.815979 C69.39001016 66.5691252 72.15673249 69.31621127 74.92474365 72.06207275 C77.75032928 74.86716916 80.57023445 77.67796321 83.390625 80.48828125 C88.92154374 85.99777532 94.45876589 91.50087877 100 97 C99.34 97.66 98.68 98.32 98 99 C65.87231445 66.87231445 65.87231445 66.87231445 63.84048462 64.83267212 C62.70598539 63.70298862 61.56268633 62.58196887 60.40536499 61.47567749 C58.12939608 59.29085517 57.02039437 58.06118312 56 55 C55.34 55 54.68 55 54 55 C52.2734375 53.25 52.2734375 53.25 50.375 51 C49.74335938 50.2575 49.11171875 49.515 48.4609375 48.75 C47.97882813 48.1725 47.49671875 47.595 47 47 C51.68822885 41.36428993 56.69971495 36.16895351 61.8984375 31.00390625 C62.63940674 30.26394409 63.38037598 29.52398193 64.14379883 28.76159668 C66.88478116 26.02580507 69.63014303 23.29440412 72.375 20.5625 C78.52125 14.436875 84.6675 8.31125 91 2 C60.97 1.67 30.94 1.34 0 1 C0 0.67 0 0.34 0 0 Z " fill="#9332EA" transform="translate(308,157)"/>
<path d="M0 0 C1.61418634 0.0536289 1.61418634 0.0536289 3.26098251 0.10834122 C16.82695673 0.59370079 30.35219314 1.44832484 43.875 2.625 C40.5693682 6.54120992 37.24611894 10.37927687 33.61376953 13.99975586 C32.83341339 14.78003647 32.05305725 15.56031708 31.24905396 16.36424255 C30.42694427 17.18119095 29.60483459 17.99813934 28.7578125 18.83984375 C27.90065643 19.69558487 27.04350037 20.55132599 26.16036987 21.43299866 C23.44260046 24.14520465 20.72136109 26.8538983 18 29.5625 C16.14820658 31.40927369 14.29664166 33.25627653 12.4453125 35.10351562 C7.92451565 39.61333201 3.40087054 44.12027569 -1.125 48.625 C-1.785 48.295 -2.445 47.965 -3.125 47.625 C-2.60104141 47.10326202 -2.07708282 46.58152405 -1.5372467 46.04397583 C3.39484504 41.13190294 8.32454301 36.2174393 13.25154781 31.30026436 C15.78478501 28.77225063 18.31894606 26.24517755 20.85522461 23.72021484 C23.76952313 20.81883787 26.67978784 17.9134448 29.58984375 15.0078125 C30.96014992 13.64524826 30.96014992 13.64524826 32.35813904 12.25515747 C33.19893509 11.41443695 34.03973114 10.57371643 34.90600586 9.70751953 C35.64991074 8.96583527 36.39381561 8.224151 37.16026306 7.45999146 C38.94225533 5.72709454 38.94225533 5.72709454 39.875 3.625 C28.79058342 3.43029468 17.70818929 3.31286176 6.62200832 3.29078102 C1.47240347 3.27816622 -3.67426405 3.24015717 -8.82299805 3.14160156 C-13.80369622 3.04723846 -18.78051058 3.02286245 -23.76200676 3.04453659 C-25.650548 3.04093059 -27.53922058 3.01320526 -29.42700386 2.95958328 C-38.86610259 2.70686252 -46.13898773 2.91177335 -53.48378563 9.35427475 C-55.98260832 11.79331952 -58.34827053 14.31682956 -60.6467762 16.94499588 C-62.48860955 19.03824294 -64.46981055 20.95635545 -66.48999023 22.87646484 C-67.64043099 24.02705555 -68.78839684 25.18012742 -69.93359375 26.3359375 C-70.55605484 26.95981354 -71.17851593 27.58368958 -71.81983948 28.22647095 C-73.73650161 30.14856718 -75.64959026 32.07417014 -77.5625 34 C-78.89103594 35.33357258 -80.21981117 36.6669068 -81.54882812 38 C-84.74363177 41.20561125 -87.93524602 44.41436435 -91.125 47.625 C-91.125 36.84049288 -76.35752213 23.23484922 -69.25939178 16.05802917 C-49.91653532 -2.489899 -25.2997446 -0.84071704 0 0 Z " fill="#D179FD" transform="translate(356.125,155.375)"/>
<path d="M0 0 C30.69 0 61.38 0 93 0 C93 0.66 93 1.32 93 2 C91.77734375 3.20141602 91.77734375 3.20141602 89.9375 4.69140625 C82.89323172 10.68120845 76.51229455 17.38320598 70 23.9375 C68.63955682 25.30296745 67.27888169 26.66820386 65.91796875 28.03320312 C62.6092969 31.35280886 59.30378678 34.67553273 56 38 C55.01 37.505 55.01 37.505 54 37 C54.4112059 36.59101471 54.8224118 36.18202942 55.24607849 35.76065063 C59.51511839 31.51368848 63.78067047 27.2632466 68.04418945 23.01074219 C69.6370417 21.42292701 71.23078918 19.83600939 72.82543945 18.25 C75.11383743 15.97369489 77.39902479 13.6942097 79.68359375 11.4140625 C80.7586039 10.34679428 80.7586039 10.34679428 81.85533142 9.25796509 C82.5159407 8.59743134 83.17654999 7.93689758 83.85717773 7.25634766 C84.44119858 6.67454742 85.02521942 6.09274719 85.62693787 5.49331665 C87.10104122 4.02807111 87.10104122 4.02807111 88 2 C58.96 2 29.92 2 0 2 C0 1.34 0 0.68 0 0 Z " fill="#00C6EC" transform="translate(110,157)"/>
<path d="M0 0 C3.099054 1.38017432 5.2226015 2.97012823 7.61938477 5.3605957 C8.31012589 6.0450325 9.000867 6.7294693 9.71253967 7.43464661 C10.44806564 8.17422104 11.18359161 8.91379547 11.94140625 9.67578125 C12.70549301 10.43795456 13.46957977 11.20012787 14.25682068 11.98539734 C15.87053361 13.59775013 17.48172699 15.21262798 19.09057617 16.82983398 C21.54973253 19.29967704 24.01933975 21.75870353 26.49023438 24.21679688 C28.05793319 25.78581761 29.62501133 27.3554588 31.19140625 28.92578125 C32.29773155 30.02603386 32.29773155 30.02603386 33.42640686 31.14851379 C36.825005 34.57827278 39.69963978 37.70997885 42 42 C42.66 42.66 43.32 43.32 44 44 C47.61991736 43.70831244 49.32363813 42.00384429 51.75 39.4375 C52.36359375 38.79683594 52.9771875 38.15617187 53.609375 37.49609375 C54.29773438 36.75552734 54.29773438 36.75552734 55 36 C55.66 36.33 56.32 36.66 57 37 C53.88868073 41.68387418 50.43219982 46.08916486 44.83275604 47.57514191 C38.40752842 48.43719178 31.9241608 48.14635409 25.4609375 47.9765625 C23.36776116 47.95788741 21.2745408 47.94366406 19.18130493 47.9336853 C13.69912853 47.89568949 8.21964514 47.79762768 2.73852539 47.68664551 C-2.86535212 47.58393962 -8.46966927 47.53858983 -14.07421875 47.48828125 C-25.05065579 47.38136367 -36.02510308 47.2109251 -47 47 C-47 46.67 -47 46.34 -47 46 C-45.89936974 45.9845388 -45.89936974 45.9845388 -44.77650452 45.96876526 C-37.73520816 45.86927152 -30.69396626 45.7665947 -23.65276432 45.66066074 C-20.03602772 45.60635116 -16.41928313 45.5531185 -12.80249023 45.50268555 C5.14447266 45.25153664 23.06867383 44.8394176 41 44 C40.32902031 43.34133186 40.32902031 43.34133186 39.64448547 42.6693573 C38.41139284 41.45889021 37.1784742 40.24824585 35.94570923 39.03744507 C34.65141626 37.76763927 33.35422339 36.50078763 32.05541992 35.2355957 C31.49443604 34.67960693 30.93345215 34.12361816 30.35546875 33.55078125 C29.49924927 32.71027222 29.49924927 32.71027222 28.62573242 31.8527832 C27 30 27 30 25.63671875 27.63452148 C23.63843789 24.4180166 21.15149613 21.9201575 18.45703125 19.296875 C17.6643409 18.511987 17.6643409 18.511987 16.8556366 17.71124268 C15.17931096 16.05263011 13.49640433 14.40091492 11.8125 12.75 C10.11881351 11.0839058 8.42660708 9.41637295 6.73722839 7.74591064 C5.68828288 6.70925554 4.63667657 5.67528481 3.58222961 4.64422607 C2.36939345 3.44821378 1.18182385 2.22666595 0 1 C0 0.67 0 0.34 0 0 Z " fill="#622BC7" transform="translate(157,308)"/>
<path d="M0 0 C0.66 0.66 1.32 1.32 2 2 C-14.17 18.17 -30.34 34.34 -47 51 C-45.21241555 54.5751689 -43.94404498 56.30075531 -41.19287109 59.03417969 C-40.41221283 59.81468689 -39.63155457 60.59519409 -38.82723999 61.39935303 C-37.98448517 62.23178528 -37.14173035 63.06421753 -36.2734375 63.921875 C-35.41062164 64.78186096 -34.54780579 65.64184692 -33.65884399 66.52789307 C-30.90221971 69.2733231 -28.13872201 72.0117169 -25.375 74.75 C-23.50475143 76.61021783 -21.63495411 78.47088946 -19.765625 80.33203125 C-15.1823064 84.89329945 -10.59332522 89.44881011 -6 94 C-9 94 -9 94 -10.95524597 92.40551758 C-11.69470963 91.65939209 -12.43417328 90.9132666 -13.19604492 90.14453125 C-14.03668991 89.30365967 -14.8773349 88.46278809 -15.74345398 87.59643555 C-17.09827629 86.21838745 -17.09827629 86.21838745 -18.48046875 84.8125 C-19.40845779 83.88026611 -20.33644684 82.94803223 -21.29255676 81.98754883 C-23.76025523 79.50839294 -26.21881294 77.02036031 -28.67559814 74.53039551 C-31.18389033 71.99142178 -33.70069072 69.46091363 -36.21679688 66.9296875 C-41.1529096 61.96139486 -46.07942094 56.98367624 -51 52 C-45.87458022 45.79652613 -40.2723094 40.14315324 -34.5703125 34.47265625 C-33.56975714 33.47396983 -32.56942519 32.47505953 -31.56930542 31.47593689 C-28.9576612 28.86808036 -26.34302633 26.26324305 -23.72772217 23.65905762 C-21.05101677 20.99264764 -18.37719898 18.32334536 -15.703125 15.65429688 C-10.47154602 10.43338899 -5.23679904 5.21567249 0 0 Z " fill="#006EF0" transform="translate(109,158)"/>
<path d="M0 0 C4.00374431 1.83692389 6.71957934 4.49117916 9.75 7.625 C10.25660156 8.140625 10.76320312 8.65625 11.28515625 9.1875 C12.52803902 10.45383339 13.76465276 11.7263144 15 13 C14.67 13.66 14.34 14.32 14 15 C10.04 11.04 6.08 7.08 2 3 C-3.55439924 7.62491379 -8.68525669 12.55360964 -13.77734375 17.6796875 C-14.99436729 18.89883347 -14.99436729 18.89883347 -16.23597717 20.14260864 C-18.8055259 22.71771738 -21.37155968 25.2962962 -23.9375 27.875 C-25.68791929 29.63043946 -27.438568 31.38565017 -29.18945312 33.140625 C-33.46229302 37.42444082 -37.73225899 41.71110472 -42 46 C-38.03627475 50.75085867 -33.90205218 55.23613112 -29.5078125 59.58984375 C-28.91700897 60.17923233 -28.32620544 60.76862091 -27.71749878 61.37586975 C-25.85569596 63.23213727 -23.99042255 65.08487085 -22.125 66.9375 C-20.85132989 68.20614672 -19.57789029 69.4750249 -18.3046875 70.74414062 C-15.20577957 73.83210554 -12.10375699 76.91690929 -9 80 C-9.33 80.66 -9.66 81.32 -10 82 C-21.55 70.45 -33.1 58.9 -45 47 C-43.1462535 43.29250701 -41.70141537 41.45754745 -38.82568359 38.59863281 C-37.96494232 37.7380426 -37.10420105 36.87745239 -36.21737671 35.99078369 C-35.28712677 35.07085632 -34.35687683 34.15092896 -33.3984375 33.203125 C-32.43678914 32.24520903 -31.47558306 31.28684886 -30.51480103 30.32806396 C-27.99076718 27.81164875 -25.46078409 25.30129893 -22.92950439 22.79217529 C-20.3452081 20.22837559 -17.76659801 17.65887082 -15.1875 15.08984375 C-10.13054303 10.05430543 -5.06727744 5.0251544 0 0 Z " fill="#0098F7" transform="translate(57,210)"/>
<path d="M0 0 C0.66 0.33 1.32 0.66 2 1 C-9.22 12.22 -20.44 23.44 -32 35 C-26.54339844 35.09087891 -26.54339844 35.09087891 -20.9765625 35.18359375 C-17.42852979 35.24551465 -13.88052488 35.30884767 -10.33251953 35.37231445 C-7.87876898 35.41545625 -5.42499241 35.45714465 -2.97119141 35.49731445 C0.56876445 35.55552323 4.10859181 35.61906833 7.6484375 35.68359375 C8.73426117 35.70030624 9.82008484 35.71701874 10.93881226 35.73423767 C17.33953824 35.85695321 23.64184075 36.2470499 30 37 C30 37.33 30 37.66 30 38 C7.89 38 -14.22 38 -37 38 C-30.25 30.125 -30.25 30.125 -27.47314453 27.35961914 C-26.85295441 26.73950455 -26.23276428 26.11938995 -25.59378052 25.48048401 C-24.94666107 24.83852585 -24.29954163 24.19656769 -23.6328125 23.53515625 C-22.95322479 22.85698349 -22.27363708 22.17881073 -21.57345581 21.48008728 C-19.42632998 19.33850859 -17.27573373 17.20045471 -15.125 15.0625 C-13.65862227 13.60114411 -12.1924742 12.13955774 -10.7265625 10.67773438 C-7.15369 7.11582065 -3.57770316 3.55706135 0 0 Z " fill="#FE81FA" transform="translate(346,317)"/>
<path d="M0 0 C3.53239023 1.50684968 5.7962166 3.55366612 8.49316406 6.26611328 C9.81408051 7.58725632 9.81408051 7.58725632 11.16168213 8.93508911 C12.11310431 9.89672351 13.06441603 10.8584672 14.015625 11.8203125 C14.99596129 12.80438107 15.97674168 13.78800742 16.95794678 14.77120972 C19.53354467 17.35442714 22.10307857 19.94359512 24.67138672 22.53405762 C27.29551067 25.1786762 29.92533771 27.8176101 32.5546875 30.45703125 C37.7087167 35.63248072 42.85635157 40.81423122 48 46 C47.34 46.66 46.68 47.32 46 48 C13.87231445 15.87231445 13.87231445 15.87231445 11.84048462 13.83267212 C10.70598539 12.70298862 9.56268633 11.58196887 8.40536499 10.47567749 C6.12939608 8.29085517 5.02039437 7.06118312 4 4 C3.34 4 2.68 4 2 4 C1.34 2.68 0.68 1.36 0 0 Z " fill="#B52CE1" transform="translate(360,208)"/>
<path d="M0 0 C5.2513328 4.3942079 10.17125424 9.01100702 15.015625 13.84765625 C15.75327087 14.58197372 16.49091675 15.3162912 17.25091553 16.07286072 C18.79846665 17.61537907 20.34469242 19.15922815 21.88964844 20.7043457 C24.25175482 23.06425319 26.62176145 25.41603114 28.9921875 27.76757812 C30.50048915 29.27294756 32.00831821 30.77879068 33.515625 32.28515625 C34.22189026 32.98423599 34.92815552 33.68331573 35.65582275 34.40357971 C38.96466789 37.72789882 41.83994691 40.77747427 44 45 C40.15776433 43.49055027 38.48004177 41.23156958 36 38 C33.48813108 35.35592746 30.96816151 32.97439078 28.125 30.6875 C25.75509133 28.75243696 23.7973659 26.68560851 21.8203125 24.3515625 C17.99077421 19.92545537 13.91210194 15.79912869 9.75 11.6875 C9.04359375 10.98560547 8.3371875 10.28371094 7.609375 9.56054688 C6.30683565 8.26664179 5.00326148 6.97377685 3.69824219 5.68237305 C2.12743477 4.12624396 0.56213962 2.56482473 -1 1 C-0.67 0.67 -0.34 0.34 0 0 Z " fill="#E108D0" transform="translate(407,256)"/>
<path d="M0 0 C0.66 0.66 1.32 1.32 2 2 C1.25363281 2.67417969 0.50726563 3.34835938 -0.26171875 4.04296875 C-14.64949766 17.20014178 -28.26237875 31.17244569 -42 45 C-42 42 -42 42 -40.40551758 40.04475403 C-39.65939209 39.30529037 -38.9132666 38.56582672 -38.14453125 37.80395508 C-37.30365967 36.96331009 -36.46278809 36.1226651 -35.59643555 35.25654602 C-34.67773682 34.35333115 -33.75903809 33.45011627 -32.8125 32.51953125 C-31.41414917 31.12754768 -31.41414917 31.12754768 -29.98754883 29.70744324 C-27.50839294 27.23974477 -25.02036031 24.78118706 -22.53039551 22.32440186 C-19.99142178 19.81610967 -17.46091363 17.29930928 -14.9296875 14.78320312 C-9.96139486 9.8470904 -4.98367624 4.92057906 0 0 Z " fill="#CB5EFF" transform="translate(307,158)"/>
<path d="M0 0 C3.32302186 1.56377499 5.56184007 3.21353151 8 6 C8 6.66 8 7.32 8 8 C8.66 8.33 9.32 8.66 10 9 C7.05833742 8.57976249 6.08790323 8.09339718 4 5.875 C2.21338995 3.78617982 2.21338995 3.78617982 0 3.9375 C-2.79149722 5.4204829 -4.11015126 7.48020169 -6 10 C-9.4556234 13.63749832 -13.11623708 16.83879762 -17 20 C-17 17 -17 17 -15.43945312 15.09887695 C-14.37114258 14.05413208 -14.37114258 14.05413208 -13.28125 12.98828125 C-12.51425781 12.23095703 -11.74726563 11.47363281 -10.95703125 10.69335938 C-10.14621094 9.90767578 -9.33539063 9.12199219 -8.5 8.3125 C-7.68917969 7.51521484 -6.87835938 6.71792969 -6.04296875 5.89648438 C-4.03517797 3.9241252 -2.0207313 1.95908508 0 0 Z " fill="#000F35" transform="translate(354,204)"/>
<path d="M0 0 C3.36335594 1.45745424 5.54534005 3.31117854 8.109375 5.9140625 C8.86347656 6.67460937 9.61757813 7.43515625 10.39453125 8.21875 C11.17183594 9.0128125 11.94914062 9.806875 12.75 10.625 C13.54277344 11.42679688 14.33554687 12.22859375 15.15234375 13.0546875 C17.10614493 15.03202846 19.05512103 17.01388909 21 19 C20.34 19.66 19.68 20.32 19 21 C15.82530062 17.88307091 12.66164608 14.75516454 9.5 11.625 C8.59378906 10.73554688 7.68757813 9.84609375 6.75390625 8.9296875 C5.46806641 7.65351563 5.46806641 7.65351563 4.15625 6.3515625 C3.36025391 5.56604004 2.56425781 4.78051758 1.74414062 3.97119141 C0 2 0 2 0 0 Z " fill="#C931E4" transform="translate(387,235)"/>
<path d="M0 0 C3.15204981 1.39347376 5.26171773 3.02485079 7.671875 5.4765625 C8.33574219 6.146875 8.99960938 6.8171875 9.68359375 7.5078125 C10.36550781 8.20648438 11.04742187 8.90515625 11.75 9.625 C12.44738281 10.33140625 13.14476563 11.0378125 13.86328125 11.765625 C15.58012488 13.50598703 17.29211832 15.25084981 19 17 C18.34 17.66 17.68 18.32 17 19 C14.15862758 16.21641519 11.32831845 13.42184273 8.5 10.625 C7.68917969 9.8309375 6.87835938 9.036875 6.04296875 8.21875 C4.89248047 7.07792969 4.89248047 7.07792969 3.71875 5.9140625 C3.00654297 5.2123291 2.29433594 4.5105957 1.56054688 3.78759766 C0 2 0 2 0 0 Z " fill="#091745" transform="translate(105,255)"/>
<path d="M0 0 C0.99 0.33 1.98 0.66 3 1 C-1.38442526 6.25174926 -6.00842093 11.13222473 -10.875 15.9375 C-11.56335938 16.62134766 -12.25171875 17.30519531 -12.9609375 18.00976562 C-14.63833511 19.67551464 -16.31803791 21.3388622 -18 23 C-18 20 -18 20 -16.45532227 18.14648438 C-15.39655884 17.13038086 -15.39655884 17.13038086 -14.31640625 16.09375 C-13.17268555 14.97806641 -13.17268555 14.97806641 -12.00585938 13.83984375 C-11.19955078 13.06769531 -10.39324219 12.29554688 -9.5625 11.5 C-7.97599426 9.97338644 -6.39374913 8.44232906 -4.81640625 6.90625 C-4.10943604 6.22884766 -3.40246582 5.55144531 -2.67407227 4.85351562 C-0.77837178 3.00377638 -0.77837178 3.00377638 0 0 Z " fill="#FB06EE" transform="translate(451,301)"/>
<path d="M0 0 C3.36179774 1.44077046 5.59156268 3.24750021 8 6 C8 6.66 8 7.32 8 8 C8.66 8.33 9.32 8.66 10 9 C6.60807637 8.40716379 4.7892243 7.23256811 2.25 4.9375 C1.63640625 4.38964844 1.0228125 3.84179688 0.390625 3.27734375 C-0.06828125 2.85582031 -0.5271875 2.43429688 -1 2 C-0.67 1.34 -0.34 0.68 0 0 Z " fill="#16154B" transform="translate(354,204)"/>
<path d="M0 0 C3.45201639 1.47721422 5.64961936 3.43794001 8.25 6.125 C8.95640625 6.84945312 9.6628125 7.57390625 10.390625 8.3203125 C11.18726563 9.15175781 11.18726563 9.15175781 12 10 C11.34 10.66 10.68 11.32 10 12 C5.125 7.375 5.125 7.375 4 4 C3.34 4 2.68 4 2 4 C1.34 2.68 0.68 1.36 0 0 Z " fill="#AB26F0" transform="translate(360,208)"/>
<path d="M0 0 C4.2742558 1.5830577 6.26531794 4.50568404 9 8 C6 8 6 8 4.39453125 6.7578125 C3.87246094 6.21898437 3.35039062 5.68015625 2.8125 5.125 C2.28269531 4.59132812 1.75289063 4.05765625 1.20703125 3.5078125 C0 2 0 2 0 0 Z " fill="#A828E0" transform="translate(371,219)"/>
<path d="M0 0 C0.66 0.66 1.32 1.32 2 2 C-1.465 4.97 -1.465 4.97 -5 8 C-5 5 -5 5 -2.5 2.3125 C-1.675 1.549375 -0.85 0.78625 0 0 Z " fill="#04143E" transform="translate(342,216)"/>
</svg>
